<svg width="24" height="24" viewBox="0 0 24 24" fill="none" xmlns="http://www.w3.org/2000/svg">
<path fill-rule="evenodd" clip-rule="evenodd" d="M4.29289 5.09294C4.68342 4.70242 5.31658 4.70242 5.70711 5.09294L11 10.3858L16.2929 5.09294C16.6834 4.70242 17.3166 4.70242 17.7071 5.09294C18.0976 5.48347 18.0976 6.11663 17.7071 6.50716L12.4142 11.8L17.7071 17.0929C18.0976 17.4834 18.0976 18.1166 17.7071 18.5071C17.3166 18.8976 16.6834 18.8976 16.2929 18.5071L11 13.2142L5.70711 18.5071C5.31658 18.8976 4.68342 18.8976 4.29289 18.5071C3.90237 18.1166 3.90237 17.4834 4.29289 17.0929L9.5858 11.8L4.29289 6.50716C3.90237 6.11663 3.90237 5.48347 4.29289 5.09294Z" fill="#5EA0E7"/>
</svg>
