<svg width="13" height="9" viewBox="0 0 13 9" fill="none" xmlns="http://www.w3.org/2000/svg">
<path fill-rule="evenodd" clip-rule="evenodd" d="M10.6681 4.29687L9.0675 5.8975C9.00763 5.95329 8.95961 6.02056 8.9263 6.09531C8.893 6.17006 8.87509 6.25075 8.87364 6.33257C8.8722 6.41439 8.88725 6.49567 8.9179 6.57155C8.94855 6.64742 8.99417 6.71635 9.05203 6.77422C9.1099 6.83208 9.17882 6.8777 9.2547 6.90835C9.33058 6.939 9.41185 6.95405 9.49367 6.9526C9.5755 6.95116 9.65619 6.93325 9.73094 6.89994C9.80569 6.86664 9.87296 6.81862 9.92875 6.75875L12.5694 4.11812L13 3.6875L12.5694 3.25687L9.92875 0.616247C9.81323 0.508607 9.66045 0.450007 9.50258 0.452793C9.34471 0.455578 9.19408 0.519532 9.08243 0.63118C8.97078 0.742828 8.90683 0.893453 8.90405 1.05132C8.90126 1.20919 8.95986 1.36198 9.0675 1.4775L10.6681 3.07812H2.64062C1.94029 3.07812 1.26863 3.35633 0.773421 3.85154C0.278208 4.34676 0 5.01841 0 5.71875C0 6.41908 0.278208 7.09074 0.773421 7.58595C1.26863 8.08116 1.94029 8.35937 2.64062 8.35937H4.26562C4.42724 8.35937 4.58224 8.29517 4.69652 8.18089C4.8108 8.06661 4.875 7.91161 4.875 7.75C4.875 7.58838 4.8108 7.43338 4.69652 7.3191C4.58224 7.20482 4.42724 7.14062 4.26562 7.14062H2.64062C2.26352 7.14062 1.90186 6.99082 1.63521 6.72416C1.36855 6.45751 1.21875 6.09585 1.21875 5.71875C1.21875 5.34164 1.36855 4.97998 1.63521 4.71333C1.90186 4.44668 2.26352 4.29687 2.64062 4.29687H10.6681Z" fill="#696969" fill-opacity="0.9"/>
</svg>
