<svg width="13" height="9" viewBox="0 0 13 9" fill="none" xmlns="http://www.w3.org/2000/svg">
<path fill-rule="evenodd" clip-rule="evenodd" d="M2.33187 4.29687L3.9325 5.8975C3.99237 5.95329 4.04039 6.02056 4.0737 6.09531C4.107 6.17006 4.12491 6.25075 4.12636 6.33257C4.1278 6.41439 4.11275 6.49567 4.0821 6.57155C4.05145 6.64742 4.00583 6.71635 3.94797 6.77422C3.8901 6.83208 3.82118 6.8777 3.7453 6.90835C3.66942 6.939 3.58815 6.95405 3.50633 6.9526C3.4245 6.95116 3.34381 6.93325 3.26906 6.89994C3.19431 6.86664 3.12704 6.81862 3.07125 6.75875L0.430625 4.11812L0 3.6875L0.430625 3.25687L3.07125 0.616247C3.18677 0.508607 3.33955 0.450007 3.49742 0.452793C3.65529 0.455578 3.80592 0.519532 3.91757 0.63118C4.02922 0.742828 4.09317 0.893453 4.09595 1.05132C4.09874 1.20919 4.04014 1.36198 3.9325 1.4775L2.33187 3.07812H10.3594C11.0597 3.07812 11.7314 3.35633 12.2266 3.85154C12.7218 4.34676 13 5.01841 13 5.71875C13 6.41908 12.7218 7.09074 12.2266 7.58595C11.7314 8.08116 11.0597 8.35937 10.3594 8.35937H8.73438C8.57276 8.35937 8.41776 8.29517 8.30348 8.18089C8.1892 8.06661 8.125 7.91161 8.125 7.75C8.125 7.58838 8.1892 7.43338 8.30348 7.3191C8.41776 7.20482 8.57276 7.14062 8.73438 7.14062H10.3594C10.7365 7.14062 11.0981 6.99082 11.3648 6.72416C11.6314 6.45751 11.7812 6.09585 11.7812 5.71875C11.7812 5.34164 11.6314 4.97998 11.3648 4.71333C11.0981 4.44668 10.7365 4.29687 10.3594 4.29687H2.33187Z" fill="#696969" fill-opacity="0.9"/>
</svg>
