<svg width="28" height="28" viewBox="0 0 28 28" fill="none" xmlns="http://www.w3.org/2000/svg">
<path d="M26.4022 18.6645L19.9613 15.7783L19.9436 15.7701C19.6092 15.6271 19.2444 15.5697 18.8823 15.6031C18.5202 15.6365 18.1721 15.7597 17.8695 15.9615C17.8339 15.985 17.7997 16.0106 17.767 16.0381L14.4393 18.875C12.3311 17.851 10.1545 15.6908 9.13048 13.61L11.9715 10.2316C11.9988 10.1975 12.0248 10.1633 12.0494 10.1264C12.2469 9.82463 12.3667 9.47876 12.3982 9.11953C12.4297 8.76031 12.3719 8.39887 12.2299 8.06738V8.05097L9.33556 1.59922C9.1479 1.16618 8.82522 0.805448 8.4157 0.570871C8.00617 0.336294 7.53176 0.240452 7.06329 0.297654C5.21071 0.541433 3.51022 1.45124 2.27941 2.85716C1.04861 4.26308 0.371663 6.06895 0.375012 7.9375C0.375012 18.793 9.20704 27.625 20.0625 27.625C21.9311 27.6283 23.7369 26.9514 25.1429 25.7206C26.5488 24.4898 27.4586 22.7893 27.7024 20.9367C27.7597 20.4684 27.664 19.9941 27.4297 19.5846C27.1954 19.1751 26.8349 18.8523 26.4022 18.6645ZM20.0625 25.4375C15.4228 25.4324 10.9745 23.5871 7.69374 20.3063C4.41295 17.0255 2.56758 12.5772 2.56251 7.9375C2.55737 6.60242 3.03836 5.31112 3.91567 4.30475C4.79297 3.29838 6.0066 2.64575 7.3299 2.46875C7.32935 2.4742 7.32935 2.4797 7.3299 2.48515L10.201 8.91094L7.37501 12.2934C7.34627 12.3263 7.32021 12.3615 7.29708 12.3986C7.09134 12.7143 6.97065 13.0778 6.94669 13.4539C6.92274 13.83 6.99634 14.2059 7.16036 14.5451C8.39904 17.0785 10.9516 19.6119 13.5123 20.8492C13.8541 21.0117 14.2321 21.0828 14.6095 21.0554C14.987 21.0281 15.3509 20.9034 15.6656 20.6934C15.7008 20.6698 15.7346 20.6443 15.7668 20.6168L19.0904 17.7812L25.5162 20.6592H25.5313C25.3564 21.9843 24.7048 23.2004 23.6982 24.0799C22.6917 24.9594 21.3992 25.442 20.0625 25.4375Z" fill="#3E3E3E"/>
</svg>
