<svg width="26" height="22" viewBox="0 0 26 22" fill="none" xmlns="http://www.w3.org/2000/svg">
<path d="M24.25 4.4375H8.3125C8.06386 4.4375 7.8254 4.33873 7.64959 4.16291C7.47377 3.9871 7.375 3.74864 7.375 3.5C7.375 3.25136 7.47377 3.0129 7.64959 2.83709C7.8254 2.66127 8.06386 2.5625 8.3125 2.5625H24.25C24.4986 2.5625 24.7371 2.66127 24.9129 2.83709C25.0887 3.0129 25.1875 3.25136 25.1875 3.5C25.1875 3.74864 25.0887 3.9871 24.9129 4.16291C24.7371 4.33873 24.4986 4.4375 24.25 4.4375Z" fill="black"/>
<path d="M4.5625 4.4375H1.75C1.50136 4.4375 1.2629 4.33873 1.08709 4.16291C0.911272 3.9871 0.8125 3.74864 0.8125 3.5C0.8125 3.25136 0.911272 3.0129 1.08709 2.83709C1.2629 2.66127 1.50136 2.5625 1.75 2.5625H4.5625C4.81114 2.5625 5.0496 2.66127 5.22541 2.83709C5.40123 3.0129 5.5 3.25136 5.5 3.5C5.5 3.74864 5.40123 3.9871 5.22541 4.16291C5.0496 4.33873 4.81114 4.4375 4.5625 4.4375Z" fill="black"/>
<path d="M17.6875 11.9375H1.75C1.50136 11.9375 1.2629 11.8387 1.08709 11.6629C0.911272 11.4871 0.8125 11.2486 0.8125 11C0.8125 10.7514 0.911272 10.5129 1.08709 10.3371C1.2629 10.1613 1.50136 10.0625 1.75 10.0625H17.6875C17.9361 10.0625 18.1746 10.1613 18.3504 10.3371C18.5262 10.5129 18.625 10.7514 18.625 11C18.625 11.2486 18.5262 11.4871 18.3504 11.6629C18.1746 11.8387 17.9361 11.9375 17.6875 11.9375Z" fill="black"/>
<path d="M8.3125 19.4375H1.75C1.50136 19.4375 1.2629 19.3387 1.08709 19.1629C0.911272 18.9871 0.8125 18.7486 0.8125 18.5C0.8125 18.2514 0.911272 18.0129 1.08709 17.8371C1.2629 17.6613 1.50136 17.5625 1.75 17.5625H8.3125C8.56114 17.5625 8.7996 17.6613 8.97541 17.8371C9.15123 18.0129 9.25 18.2514 9.25 18.5C9.25 18.7486 9.15123 18.9871 8.97541 19.1629C8.7996 19.3387 8.56114 19.4375 8.3125 19.4375Z" fill="black"/>
<path d="M6.4375 6.3125C5.88124 6.3125 5.33747 6.14755 4.87496 5.83851C4.41245 5.52947 4.05196 5.09022 3.83909 4.5763C3.62622 4.06238 3.57052 3.49688 3.67904 2.95131C3.78756 2.40574 4.05543 1.9046 4.44876 1.51126C4.8421 1.11793 5.34324 0.850064 5.88881 0.741543C6.43438 0.633022 6.99988 0.688719 7.5138 0.90159C8.02772 1.11446 8.46697 1.47495 8.77601 1.93746C9.08505 2.39997 9.25 2.94374 9.25 3.5C9.25 4.24592 8.95369 4.96129 8.42624 5.48874C7.89879 6.01619 7.18342 6.3125 6.4375 6.3125ZM6.4375 2.5625C6.25208 2.5625 6.07082 2.61748 5.91665 2.7205C5.76248 2.82351 5.64232 2.96993 5.57136 3.14124C5.50041 3.31254 5.48184 3.50104 5.51801 3.6829C5.55419 3.86476 5.64348 4.0318 5.77459 4.16291C5.9057 4.29403 6.07275 4.38331 6.2546 4.41949C6.43646 4.45566 6.62496 4.4371 6.79627 4.36614C6.96757 4.29518 7.11399 4.17502 7.217 4.02085C7.32002 3.86668 7.375 3.68542 7.375 3.5C7.375 3.25136 7.27623 3.0129 7.10041 2.83709C6.9246 2.66127 6.68614 2.5625 6.4375 2.5625Z" fill="black"/>
<path d="M19.5625 13.8125C19.0062 13.8125 18.4625 13.6476 18 13.3385C17.5374 13.0295 17.177 12.5902 16.9641 12.0763C16.7512 11.5624 16.6955 10.9969 16.804 10.4513C16.9126 9.90574 17.1804 9.4046 17.5738 9.01126C17.9671 8.61793 18.4682 8.35006 19.0138 8.24154C19.5594 8.13302 20.1249 8.18872 20.6388 8.40159C21.1527 8.61446 21.592 8.97495 21.901 9.43746C22.2101 9.89997 22.375 10.4437 22.375 11C22.375 11.7459 22.0787 12.4613 21.5512 12.9887C21.0238 13.5162 20.3084 13.8125 19.5625 13.8125ZM19.5625 10.0625C19.3771 10.0625 19.1958 10.1175 19.0417 10.2205C18.8875 10.3235 18.7673 10.4699 18.6964 10.6412C18.6254 10.8125 18.6068 11.001 18.643 11.1829C18.6792 11.3648 18.7685 11.5318 18.8996 11.6629C19.0307 11.794 19.1977 11.8833 19.3796 11.9195C19.5615 11.9557 19.75 11.9371 19.9213 11.8661C20.0926 11.7952 20.239 11.675 20.342 11.5208C20.445 11.3667 20.5 11.1854 20.5 11C20.5 10.7514 20.4012 10.5129 20.2254 10.3371C20.0496 10.1613 19.8111 10.0625 19.5625 10.0625Z" fill="black"/>
<path d="M10.1875 21.3125C9.63124 21.3125 9.08747 21.1476 8.62496 20.8385C8.16245 20.5295 7.80196 20.0902 7.58909 19.5763C7.37622 19.0624 7.32052 18.4969 7.42904 17.9513C7.53756 17.4057 7.80543 16.9046 8.19876 16.5113C8.5921 16.1179 9.09324 15.8501 9.63881 15.7415C10.1844 15.633 10.7499 15.6887 11.2638 15.9016C11.7777 16.1145 12.217 16.4749 12.526 16.9375C12.8351 17.4 13 17.9437 13 18.5C13 19.2459 12.7037 19.9613 12.1762 20.4887C11.6488 21.0162 10.9334 21.3125 10.1875 21.3125ZM10.1875 17.5625C10.0021 17.5625 9.82083 17.6175 9.66665 17.7205C9.51248 17.8235 9.39232 17.9699 9.32136 18.1412C9.25041 18.3125 9.23184 18.501 9.26802 18.6829C9.30419 18.8648 9.39348 19.0318 9.52459 19.1629C9.6557 19.294 9.82275 19.3833 10.0046 19.4195C10.1865 19.4557 10.375 19.4371 10.5463 19.3661C10.7176 19.2952 10.864 19.175 10.967 19.0208C11.07 18.8667 11.125 18.6854 11.125 18.5C11.125 18.2514 11.0262 18.0129 10.8504 17.8371C10.6746 17.6613 10.4361 17.5625 10.1875 17.5625Z" fill="black"/>
<path d="M24.25 11.9375H21.4375C21.1889 11.9375 20.9504 11.8387 20.7746 11.6629C20.5988 11.4871 20.5 11.2486 20.5 11C20.5 10.7514 20.5988 10.5129 20.7746 10.3371C20.9504 10.1613 21.1889 10.0625 21.4375 10.0625H24.25C24.4986 10.0625 24.7371 10.1613 24.9129 10.3371C25.0887 10.5129 25.1875 10.7514 25.1875 11C25.1875 11.2486 25.0887 11.4871 24.9129 11.6629C24.7371 11.8387 24.4986 11.9375 24.25 11.9375Z" fill="black"/>
<path d="M24.25 19.4375H12.0625C11.8139 19.4375 11.5754 19.3387 11.3996 19.1629C11.2238 18.9871 11.125 18.7486 11.125 18.5C11.125 18.2514 11.2238 18.0129 11.3996 17.8371C11.5754 17.6613 11.8139 17.5625 12.0625 17.5625H24.25C24.4986 17.5625 24.7371 17.6613 24.9129 17.8371C25.0887 18.0129 25.1875 18.2514 25.1875 18.5C25.1875 18.7486 25.0887 18.9871 24.9129 19.1629C24.7371 19.3387 24.4986 19.4375 24.25 19.4375Z" fill="black"/>
</svg>
