<svg width="110" height="85" viewBox="0 0 110 85" fill="none" xmlns="http://www.w3.org/2000/svg">
<path d="M100.833 0H9.16667C4.11112 0 0 4.2357 0 9.44444V75.5556C0 80.7643 4.11112 85 9.16667 85H100.833C105.889 85 110 80.7643 110 75.5556V9.44444C110 4.2357 105.889 0 100.833 0Z" fill="#303C42"/>
<path d="M4.58333 9.44445C4.58333 6.84123 6.64001 4.72223 9.16666 4.72223H100.833C103.36 4.72223 105.417 6.84123 105.417 9.44445V67.4946L70.3703 31.3862C69.4751 30.4639 68.0249 30.4639 67.1297 31.3862L38.9583 60.4113L29.1203 50.2751C28.2251 49.3528 26.7749 49.3528 25.8797 50.2751L4.58333 72.2168V9.44445Z" fill="#57C1EF"/>
<path d="M100.833 80.2778H9.16666C7.55589 80.2778 6.20417 79.3659 5.38647 78.0669L27.5 55.2832L41.9214 70.1416C42.8166 71.0639 44.2668 71.0639 45.1619 70.1416C46.0571 69.2193 46.0571 67.7252 45.1619 66.8029L42.1989 63.75L68.75 36.3943L105.417 74.1721V75.5556C105.417 78.1588 103.36 80.2778 100.833 80.2778Z" fill="#7CB342"/>
<path opacity="0.1" d="M103.752 72.4566C102.926 73.7052 101.603 74.5779 100.03 74.5779H8.77278L5.38647 78.0668C6.20417 79.3659 7.55589 80.2778 9.16666 80.2778H100.833C103.36 80.2778 105.417 78.1588 105.417 75.5556V74.1721L103.752 72.4566Z" fill="#010101"/>
<path d="M36.6667 42.5C44.2606 42.5 50.4167 36.1574 50.4167 28.3334C50.4167 20.5093 44.2606 14.1667 36.6667 14.1667C29.0728 14.1667 22.9167 20.5093 22.9167 28.3334C22.9167 36.1574 29.0728 42.5 36.6667 42.5Z" fill="#303C42"/>
<path d="M36.6667 37.7777C41.7293 37.7777 45.8333 33.5493 45.8333 28.3333C45.8333 23.1173 41.7293 18.8889 36.6667 18.8889C31.6041 18.8889 27.5 23.1173 27.5 28.3333C27.5 33.5493 31.6041 37.7777 36.6667 37.7777Z" fill="#FFCB29"/>
<path opacity="0.1" d="M68.6546 36.4926L79.2071 47.1684L68.75 36.3943L68.6546 36.4926Z" fill="#010101"/>
<path d="M100.833 0H9.16667C4.11112 0 0 4.2357 0 9.44444V75.5556C0 80.7643 4.11112 85 9.16667 85H100.833C105.889 85 110 80.7643 110 75.5556V9.44444C110 4.2357 105.889 0 100.833 0Z" fill="url(#paint0_linear_141_143)"/>
<defs>
<linearGradient id="paint0_linear_141_143" x1="-3.24353" y1="14.5176" x2="114.462" y2="67.7902" gradientUnits="importrSpaceOnimport">
<stop stop-color="white" stop-opacity="0.2"/>
<stop offset="1" stop-color="white" stop-opacity="0"/>
</linearGradient>
</defs>
</svg>
