<svg width="24" height="24" viewBox="0 0 24 24" fill="none" xmlns="http://www.w3.org/2000/svg">
<g clip-path="url(#clip0_2088_2484)">
<path d="M9.76395 0H9.76688V0.00120199C12.461 0.00200332 14.9025 1.12326 16.6685 2.93507C18.4314 4.74427 19.5236 7.24521 19.5256 10.0074H19.5267V10.0142V10.0222H19.5256C19.5246 11.1355 19.3463 12.2068 19.0189 13.2059C18.964 13.3736 18.9064 13.5346 18.8476 13.6885V13.6899C18.5652 14.4233 18.2001 15.1163 17.764 15.7547L23.4437 20.9914L23.4473 20.9944L23.4779 21.0237L23.4803 21.0261C23.8008 21.3392 23.9754 21.7585 23.9975 22.1838C24.0189 22.6045 23.8924 23.0348 23.6115 23.38L23.6094 23.3832L23.575 23.424L23.5674 23.4333L23.5391 23.4643L23.5369 23.4665C23.2316 23.7955 22.8228 23.9752 22.4076 23.9976C21.9967 24.0198 21.5767 23.8894 21.2406 23.6013L21.2383 23.5989L21.1986 23.5639L21.1929 23.5591L15.3837 18.2032C15.2118 18.3274 15.0363 18.445 14.8589 18.5564C14.6179 18.7078 14.3687 18.8503 14.1136 18.9805C12.8052 19.65 11.3272 20.0268 9.76395 20.0268V20.028H9.76082V20.0268C7.06607 20.0258 4.62465 18.9047 2.85959 17.0931L2.85881 17.0941C1.09532 15.2853 0.00312503 12.7832 0.0013672 10.0208H0V10.0142V10.011H0.0013672C0.00234377 7.24662 1.09532 4.74287 2.86194 2.93146C4.62582 1.12326 7.06432 0.00300498 9.7575 0.00120199V0H9.76395ZM13.2398 8.69382C13.4761 8.69241 13.6993 8.75632 13.8886 8.86851L13.8882 8.86891C13.9595 8.91098 14.0265 8.95986 14.0855 9.01215C14.1452 9.06503 14.2015 9.12613 14.2517 9.19144H14.2525C14.423 9.41381 14.5253 9.69668 14.5247 10.0034C14.5241 10.247 14.4593 10.4758 14.3478 10.6715C14.2591 10.8278 14.139 10.9642 13.998 11.0714C13.9288 11.1236 13.8513 11.1707 13.7698 11.2092V11.2096C13.6091 11.2853 13.4282 11.3288 13.2382 11.3298L11.0798 11.3458L11.0642 13.5619C11.0634 13.769 11.0145 13.9666 10.9298 14.14C10.8931 14.215 10.8483 14.2877 10.7974 14.3552L10.7962 14.3566C10.746 14.4225 10.6886 14.4856 10.627 14.5407C10.3987 14.7461 10.0972 14.8711 9.77137 14.8711V14.8697C9.65242 14.8697 9.53797 14.8532 9.43094 14.8232C9.21297 14.7619 9.01785 14.6423 8.86472 14.4848C8.71081 14.3264 8.59577 14.1268 8.53816 13.9053V13.9041C8.51003 13.7953 8.49519 13.6781 8.49616 13.5579V13.5569L8.51081 11.3642L6.36978 11.3795C6.13364 11.3817 5.91001 11.3174 5.71997 11.2046L5.72036 11.2042C5.64809 11.1617 5.58071 11.1124 5.52192 11.0595C5.46215 11.0067 5.40688 10.946 5.35707 10.881H5.35629C5.18578 10.6583 5.08344 10.3758 5.08422 10.0691C5.08461 9.82609 5.15004 9.59752 5.26118 9.40239L5.26039 9.40199C5.33383 9.27338 5.43012 9.15658 5.54204 9.05862H5.54282C5.65493 8.96066 5.78423 8.88173 5.92212 8.82804C6.05962 8.77475 6.21197 8.7443 6.37056 8.7433L8.52898 8.72687L8.5446 6.5108C8.54538 6.269 8.61198 6.04102 8.72449 5.8479L8.72527 5.8483C8.76902 5.77337 8.81648 5.70506 8.86726 5.64737C8.91882 5.58807 8.97976 5.53037 9.04461 5.47929L9.04558 5.47849V5.47889C9.26453 5.3064 9.54031 5.20263 9.83758 5.20343C10.0741 5.20383 10.297 5.26994 10.4854 5.38313C10.579 5.43902 10.6667 5.50954 10.7433 5.58847L10.744 5.58767C10.8188 5.66439 10.8866 5.75474 10.9431 5.85471C11.0524 6.04863 11.1147 6.27621 11.1126 6.51661L11.0979 8.70864L13.2398 8.69382ZM9.76688 2.24612V2.24733H9.76395H9.75731V2.24612C7.67077 2.24753 5.77934 3.11717 4.41039 4.5207L4.41078 4.5211C3.03987 5.92703 2.19103 7.86885 2.19045 10.011H2.19162V10.0142V10.0208H2.19045C2.19162 12.161 3.03948 14.1006 4.40804 15.5053L4.40843 15.5049C5.77915 16.9108 7.67233 17.7817 9.76082 17.7821V17.7807H9.76395H9.77039V17.7821C11.8573 17.7807 13.7484 16.911 15.1183 15.5065C16.4878 14.1024 17.3369 12.1606 17.3372 10.0172H17.3361V10.0142V10.0074H17.3374C17.3361 7.86765 16.4882 5.92803 15.1187 4.5235V4.5221C13.7497 3.11757 11.8565 2.24653 9.76688 2.24612Z" fill="black"/>
</g>
<defs>
<clipPath id="clip0_2088_2484">
<rect width="24" height="24" fill="white"/>
</clipPath>
</defs>
</svg>
