<svg width="34" height="34" viewBox="0 0 34 34" fill="none" xmlns="http://www.w3.org/2000/svg">
<path d="M20.1142 24.8312L17.0835 21.8258C15.6906 20.4445 14.9941 19.7538 14.1922 19.4948C13.4868 19.2668 12.7276 19.2668 12.0222 19.4948C11.2203 19.7538 10.5238 20.4445 9.13086 21.8258L2.07399 28.9333M20.1142 24.8312L20.7165 24.2337C22.1388 22.8234 22.8498 22.1182 23.6658 21.8609C24.3834 21.6345 25.1544 21.6433 25.8666 21.8861C26.6762 22.1623 27.371 22.8835 28.7604 24.3262L30.2353 25.8237M20.1142 24.8312L27.0941 31.9344M2.07399 28.9333C2 28.3058 2 27.494 2 26.3529V9.41176C2 7.43512 2 6.44678 2.38469 5.6918C2.72305 5.02769 3.263 4.48776 3.92709 4.14939C4.68207 3.76471 5.67039 3.76471 7.64706 3.76471H14.3529M2.07399 28.9333C2.12819 29.3928 2.22205 29.7537 2.38469 30.0729C2.72305 30.737 3.263 31.277 3.92709 31.6153C4.68207 32 5.67039 32 7.64706 32H24.5882C26.5649 32 27.5533 32 28.3082 31.6153C28.9723 31.277 29.5123 30.737 29.8506 30.0729C30.2353 29.318 30.2353 28.3296 30.2353 26.3529V19.6471M21.4118 6.03361L24.5882 9.05882L32 2" stroke="#5EA0E7" stroke-width="4" stroke-linecap="round" stroke-linejoin="round"/>
</svg>
