<svg width="34" height="34" viewBox="0 0 34 34" fill="none" xmlns="http://www.w3.org/2000/svg">
<path fill-rule="evenodd" clip-rule="evenodd" d="M10.8333 23.931L4.85 27.5L5.87715 21.3731C3.38802 19.3202 2 16.4762 2 13.3333C2 7.07411 7.50549 2 16.25 2C24.9945 2 30.5 7.07411 30.5 13.3333C30.5 19.5926 24.9945 24.6667 16.25 24.6667C14.2695 24.6667 12.4552 24.4064 10.8333 23.931Z" stroke="#5EA0E7" stroke-width="4" stroke-linecap="round" stroke-linejoin="round"/>
<path d="M29.8334 17C31.2284 18.3852 32 20.2205 32 22.2336C32 24.4002 31.1062 26.3609 29.5034 27.7762L30.1648 32L26.3119 29.5396C25.2676 29.8673 24.0992 30.0467 22.8239 30.0467C18.2308 30.0467 15.0255 27.7193 14 24.5194" stroke="#5EA0E7" stroke-width="4" stroke-linecap="round" stroke-linejoin="round"/>
</svg>
