<svg width="33" height="33" viewBox="0 0 33 33" fill="none" xmlns="http://www.w3.org/2000/svg">
<g clip-path="url(#clip0_153_274)">
<path d="M24.3787 24.3787H28.3113C29.0078 24.3787 29.6758 24.102 30.1683 23.6095C30.6608 23.117 30.9375 22.449 30.9375 21.7525V12.5675C30.9339 11.8721 30.656 11.2062 30.1643 10.7144C29.6726 10.2227 29.0067 9.94484 28.3113 9.94122H4.68875C3.99334 9.94484 3.32744 10.2227 2.8357 10.7144C2.34397 11.2062 2.06611 11.8721 2.0625 12.5675V21.7525C2.0625 22.449 2.33919 23.117 2.83171 23.6095C3.32423 24.102 3.99223 24.3787 4.68875 24.3787H8.62125" stroke="#5EA0E7" stroke-width="4" stroke-miterlimit="10"/>
<path d="M23.365 20.4325H9.62125C9.06896 20.4325 8.62125 20.8802 8.62125 21.4325V29.9375C8.62125 30.4898 9.06896 30.9375 9.62125 30.9375H23.365C23.9173 30.9375 24.365 30.4898 24.365 29.9375V21.4325C24.365 20.8802 23.9173 20.4325 23.365 20.4325Z" stroke="#5EA0E7" stroke-width="4" stroke-miterlimit="10"/>
<path d="M24.365 2.0625H8.62125V9.94125H24.365V2.0625Z" stroke="#5EA0E7" stroke-width="4" stroke-miterlimit="10"/>
<path d="M5.995 20.4325H27.005" stroke="#5EA0E7" stroke-width="4" stroke-miterlimit="10"/>
<path d="M24.3788 15.1937H27.005" stroke="#5EA0E7" stroke-width="4" stroke-miterlimit="10"/>
</g>
<defs>
<clipPath id="clip0_153_274">
<rect width="33" height="33" fill="white"/>
</clipPath>
</defs>
</svg>
