<svg width="46" height="28" viewBox="0 0 46 28" fill="none" xmlns="http://www.w3.org/2000/svg">
<path d="M17.0115 21.9843H29.113C29.4611 21.9843 29.795 21.8461 30.0411 21.5999C30.2873 21.3538 30.4255 21.0199 30.4255 20.6718L34.9958 3.93747C34.9959 3.76379 34.9614 3.59183 34.8945 3.43156C34.8275 3.2713 34.7295 3.12591 34.6059 3.00382C34.4824 2.88174 34.3358 2.78539 34.1748 2.72036C34.0137 2.65532 33.8414 2.6229 33.6677 2.62497H13.8318C13.483 2.62496 13.1483 2.76299 12.9009 3.00891C12.6536 3.25483 12.5135 3.58866 12.5115 3.93747L8.60522 20.6718C8.60522 21.0199 8.74351 21.3538 8.98965 21.5999C9.23579 21.8461 9.56963 21.9843 9.91772 21.9843H11.6208" stroke="#5EA0E7" stroke-width="3.5"/>
<path d="M32.6209 21.9844H29.9099L33.8162 8.47656H40.238C40.3346 8.47635 40.4301 8.4972 40.5178 8.53768C40.6055 8.57816 40.6833 8.63729 40.7459 8.71094L43.5427 13.6328C43.6429 13.7475 43.6984 13.8945 43.699 14.0469L41.0974 21.9844H38.2849" stroke="#5EA0E7" stroke-width="3.5"/>
<path d="M14.3787 25.7734C15.9794 25.7734 17.2771 24.4583 17.2771 22.8359C17.2771 21.2136 15.9794 19.8984 14.3787 19.8984C12.7779 19.8984 11.4802 21.2136 11.4802 22.8359C11.4802 24.4583 12.7779 25.7734 14.3787 25.7734Z" stroke="#5EA0E7" stroke-width="3.5"/>
<path d="M35.5037 25.7734C37.1044 25.7734 38.4021 24.4583 38.4021 22.8359C38.4021 21.2136 37.1044 19.8984 35.5037 19.8984C33.9029 19.8984 32.6052 21.2136 32.6052 22.8359C32.6052 24.4583 33.9029 25.7734 35.5037 25.7734Z" stroke="#5EA0E7" stroke-width="3.5"/>
<path d="M18.238 6.46875H5.44116" stroke="#5EA0E7" stroke-width="3.5" stroke-linecap="round"/>
<path d="M15.7146 10.5625H6.67554" stroke="#5EA0E7" stroke-width="3.5" stroke-linecap="round"/>
<path d="M16.6287 15.1719H2.58179" stroke="#5EA0E7" stroke-width="3.5" stroke-linecap="round"/>
</svg>
