<svg width="28" height="29" viewBox="0 0 28 29" fill="none" xmlns="http://www.w3.org/2000/svg">
<path d="M2.16727 4.00001C8.13615 4 13.1102 19 26.0429 19" stroke="#EEEDE8" stroke-width="7"/>
<path d="M24.0533 17L19.5766 12.5" stroke="#EEEDE8" stroke-width="6" stroke-linecap="round"/>
<path d="M24.0533 21L19.5766 25.5" stroke="#EEEDE8" stroke-width="6" stroke-linecap="round"/>
<path d="M26.75 19.7086C27.1389 19.3173 27.1376 18.6828 26.7471 18.2914L20.3835 11.9141C19.993 11.5228 19.3612 11.5228 18.9723 11.9141C18.5834 12.3054 18.5847 12.9399 18.9752 13.3313L24.6317 19L18.9983 24.6687C18.6094 25.0601 18.6106 25.6945 19.0011 26.0859C19.3916 26.4772 20.0235 26.4772 20.4124 26.0859L26.75 19.7086ZM2.16931 5.0021C3.25047 5.0021 4.43166 5.69016 5.91901 7.07736C7.4082 8.46628 8.90152 10.2456 10.7765 12.1954C14.42 15.9841 19.1481 20.0021 26.045 20.0021L26.0409 17.9979C20.0051 17.9979 15.7798 14.5159 12.2108 10.8046C10.4796 9.00441 8.80194 7.03371 7.2756 5.61014C5.7474 4.18484 4.0685 2.99791 2.16522 2.99791L2.16931 5.0021Z" fill="#5EA0E7"/>
</svg>
