<svg width="19" height="19" viewBox="0 0 19 19" fill="none" xmlns="http://www.w3.org/2000/svg">
<path d="M0.000122092 9.61218C5.96901 9.61217 3.95099 9.63375 16.8837 9.63376" stroke="#EEEDE8" stroke-width="5"/>
<path d="M16.5 9.5L10.4173 3.13379" stroke="#EEEDE8" stroke-width="5" stroke-linecap="round"/>
<path d="M16.5 9.5L10.4173 16.1338" stroke="#EEEDE8" stroke-width="5" stroke-linecap="round"/>
<path d="M17.5907 10.3423C17.9796 9.951 17.9783 9.3165 17.5878 8.92516L11.2242 2.54785C10.8337 2.15651 10.2019 2.15651 9.81299 2.54785C9.42408 2.9392 9.42538 3.57369 9.81588 3.96503L15.4724 9.63375L9.83897 15.3025C9.45007 15.6938 9.45136 16.3283 9.84186 16.7196C10.2324 17.111 10.8642 17.111 11.2531 16.7196L17.5907 10.3423ZM0.00204358 10.6142C2.98469 10.6142 3.97068 10.6196 5.82954 10.625C7.68905 10.6304 10.4188 10.6358 16.8857 10.6358L16.8816 8.63165C10.4158 8.63165 7.68816 8.62624 5.83124 8.62084C3.97368 8.61543 2.9842 8.61002 -0.00204354 8.61003L0.00204358 10.6142Z" fill="#5EA0E7"/>
</svg>
