<svg width="28" height="29" viewBox="0 0 28 29" fill="none" xmlns="http://www.w3.org/2000/svg">
<path d="M2.13618 24.9575C8.10507 24.9575 13.0792 9.95753 26.0118 9.95751" stroke="#EEEDE8" stroke-width="7"/>
<path d="M24.0222 11.9575L19.5455 16.4575" stroke="#EEEDE8" stroke-width="6" stroke-linecap="round"/>
<path d="M24.0222 7.95752L19.5455 3.45752" stroke="#EEEDE8" stroke-width="6" stroke-linecap="round"/>
<path d="M26.7189 9.24892C27.1078 9.64027 27.1065 10.2748 26.716 10.6661L20.3524 17.0434C19.9619 17.4348 19.3301 17.4348 18.9412 17.0434C18.5523 16.6521 18.5536 16.0176 18.9441 15.6262L24.6006 9.95752L18.9672 4.28881C18.5783 3.89747 18.5796 3.26297 18.9701 2.87163C19.3606 2.48029 19.9924 2.48029 20.3813 2.87163L26.7189 9.24892ZM2.13823 23.9554C3.21939 23.9554 4.40058 23.2674 5.88793 21.8802C7.37712 20.4912 8.87044 18.7119 10.7455 16.7622C14.3889 12.9734 19.117 8.95543 26.0139 8.95542L26.0098 10.9596C19.974 10.9596 15.7487 14.4416 12.1797 18.1529C10.4485 19.9531 8.77086 21.9238 7.24451 23.3474C5.71632 24.7727 4.03742 25.9596 2.13414 25.9596L2.13823 23.9554Z" fill="#5EA0E7"/>
</svg>
