<svg width="46" height="46" viewBox="0 0 46 46" fill="none" xmlns="http://www.w3.org/2000/svg">
<g clip-path="url(#clip0_2039_3552)">
<path d="M23 0C16.9014 0 11.0472 2.4247 6.73828 6.73648C2.42496 11.05 0.00123427 16.8999 0 23C0 29.0975 2.42578 34.9517 6.73828 39.2635C11.0472 43.5753 16.9014 46 23 46C29.0986 46 34.9528 43.5753 39.2617 39.2635C43.5742 34.9517 46 29.0975 46 23C46 16.9025 43.5742 11.0483 39.2617 6.73648C34.9528 2.4247 29.0986 0 23 0Z" fill="url(#paint0_linear_2039_3552)"/>
<path d="M10.4111 22.7571C17.117 19.8361 21.5876 17.9103 23.823 16.9797C30.2127 14.3229 31.5387 13.8614 32.4048 13.8458C32.5953 13.8428 33.0194 13.8898 33.2961 14.1135C33.5261 14.3022 33.5908 14.5574 33.6231 14.7365C33.6519 14.9155 33.6914 15.3234 33.6591 15.6418C33.3141 19.2787 31.8155 28.1042 31.0536 32.1777C30.7337 33.9013 30.0976 34.4791 29.4831 34.5356C28.1462 34.6585 27.1328 33.6529 25.8391 32.8052C23.8158 31.478 22.673 30.6522 20.7072 29.3573C18.4359 27.8609 19.9094 27.0383 21.2031 25.6942C21.5409 25.3424 27.4275 19.9895 27.5389 19.504C27.5533 19.4433 27.5676 19.2168 27.4311 19.0975C27.2981 18.9779 27.1005 19.0188 26.9567 19.0512C26.7519 19.0972 23.5211 21.2347 17.2536 25.4635C16.3372 26.0938 15.507 26.4011 14.7595 26.3849C13.9401 26.3673 12.3589 25.9206 11.1837 25.539C9.74624 25.0707 8.59983 24.8231 8.70046 24.0278C8.75077 23.6138 9.32218 23.1901 10.4111 22.7571Z" fill="white"/>
</g>
<defs>
<linearGradient id="paint0_linear_2039_3552" x1="2300" y1="0" x2="2300" y2="4600" gradientUnits="importrSpaceOnimport">
<stop stop-color="#2AABEE"/>
<stop offset="1" stop-color="#229ED9"/>
</linearGradient>
<clipPath id="clip0_2039_3552">
<rect width="46" height="46" fill="white"/>
</clipPath>
</defs>
</svg>
