<svg width="43" height="45" viewBox="0 0 43 45" fill="none" xmlns="http://www.w3.org/2000/svg">
<path d="M21.5 1.3125C18.6961 1.3125 10.1631 1.3125 5.44562 5.61987C2.63638 8.4185 1.3125 12.4624 1.3125 18.3125V21.5C1.3125 27.3501 2.63637 31.394 5.47856 34.2245C6.89381 35.5154 8.82331 36.5471 11.1821 37.2601L11.9375 37.4874V43.1484C11.9375 43.8125 12.1298 43.8125 12.1936 43.8125C12.3242 43.8125 12.5336 43.7711 12.9309 43.4183C13.0266 43.3237 13.7278 42.5651 17.1384 38.7444L17.4827 38.3587L17.998 38.3916C19.1402 38.4628 20.3185 38.5 21.5 38.5C24.3039 38.5 32.8369 38.5 37.5544 34.1916C40.3626 31.3929 41.6875 27.3491 41.6875 21.5V18.3125C41.6875 12.4624 40.3636 8.4185 37.5214 5.588C32.8369 1.3125 24.3039 1.3125 21.5 1.3125Z" fill="url(#paint0_linear_2386_9)"/>
<path d="M31.5417 26.6574C30.3613 25.6629 29.8162 25.3622 28.1863 24.3836C27.5074 23.9767 26.4725 23.625 25.9296 23.625C25.5588 23.625 25.1146 23.9087 24.8426 24.1807C24.1456 24.8777 23.9172 25.75 22.6953 25.75C21.5 25.75 19.4122 24.5334 17.9141 22.9609C16.3416 21.4628 15.125 19.375 15.125 18.1797C15.125 16.9578 15.9814 16.7134 16.6784 16.0154C16.9504 15.7444 17.25 15.3003 17.25 14.9295C17.25 14.3866 16.8983 13.3676 16.4914 12.6887C15.5128 11.0577 15.2132 10.5127 14.2176 9.33331C13.8808 8.93381 13.4973 8.75106 13.0956 8.75C12.4167 8.74894 11.5253 9.08575 10.9218 9.53519C10.0144 10.212 9.06557 11.1332 8.81164 12.2807C8.77764 12.4369 8.75745 12.5941 8.75107 12.7514C8.7022 13.9467 9.17182 15.1601 9.67864 16.1875C10.8718 18.6089 12.4507 20.9528 14.1688 23.0459C14.7181 23.7153 15.3163 24.3379 15.9357 24.9393C16.5371 25.5577 17.1597 26.1559 17.8291 26.7062C19.9222 28.4243 22.2661 30.0032 24.6875 31.1964C25.7054 31.6979 26.9039 32.159 28.0875 32.125C28.2564 32.1197 28.4254 32.1006 28.5943 32.0634C29.7418 31.8105 30.663 30.8606 31.3398 29.9532C31.7893 29.3497 32.1261 28.4594 32.125 27.7794C32.1239 27.3778 31.9412 26.9942 31.5417 26.6574ZM32.125 21.5C31.5385 21.5 31.0625 21.024 31.0625 20.4375V19.375C31.0625 14.1029 26.7721 9.8125 21.5 9.8125C20.9135 9.8125 20.4375 9.3365 20.4375 8.75C20.4375 8.1635 20.9135 7.6875 21.5 7.6875C27.9441 7.6875 33.1875 12.9309 33.1875 19.375V20.4375C33.1875 21.024 32.7115 21.5 32.125 21.5ZM25.5991 19.375C25.1274 19.375 24.696 19.0584 24.5717 18.5803C24.2806 17.4636 23.4093 16.5913 22.2969 16.3044C21.7284 16.1567 21.3874 15.5776 21.534 15.0092C21.6806 14.4418 22.2586 14.1007 22.8292 14.2463C24.6864 14.7276 26.1421 16.1822 26.6276 18.0437C26.7753 18.6121 26.4353 19.1912 25.8679 19.3399C25.7776 19.3633 25.6873 19.375 25.5991 19.375ZM28.9375 20.4375C28.351 20.4375 27.875 19.9615 27.875 19.375C27.875 15.9878 25.2251 13.1934 21.8421 13.0149C21.2556 12.9841 20.8062 12.4836 20.837 11.8982C20.8678 11.3117 21.3768 10.8612 21.9537 10.8931C26.4661 11.1311 30 14.8573 30 19.375C30 19.9615 29.524 20.4375 28.9375 20.4375ZM21.5 0.25C16.7188 0.25 9.26851 0.689875 4.72951 4.83575C1.52076 8.03069 0.250013 12.5123 0.250013 18.3125C0.250013 18.7927 0.247887 19.3283 0.252137 19.9062C0.247887 20.4832 0.250013 21.0187 0.250013 21.4989C0.250013 27.2991 1.52076 31.7807 4.72951 34.9757C6.45714 36.5535 8.61189 37.5916 10.875 38.2758V43.1484C10.875 44.8442 11.9896 44.875 12.1936 44.875H12.2031C12.728 44.8729 13.1817 44.6157 13.6364 44.212C13.8075 44.0601 15.7827 41.8586 17.9311 39.4509C19.2103 39.5327 20.4258 39.5625 21.4989 39.5625C26.2802 39.5625 33.7294 39.1216 38.2694 34.9757C41.4771 31.7818 42.7489 27.2991 42.7489 21.4989C42.7489 21.0187 42.7511 20.4832 42.7468 19.9052C42.7511 19.3272 42.7489 18.7928 42.7489 18.3114C42.7489 12.5113 41.4782 8.02962 38.2694 4.83469C33.7304 0.689875 26.2813 0.25 21.5 0.25ZM39.5625 21.1292V21.4989C39.5625 26.7116 38.4522 30.2635 36.0711 32.6679C31.9465 36.375 24.0893 36.375 21.4989 36.375C20.7106 36.375 19.4313 36.3739 17.9215 36.2688C17.5018 36.7405 13 41.7757 13 41.7757V35.5462C10.7645 35.0097 8.55557 34.1299 6.92889 32.669C4.54782 30.2635 3.43751 26.7116 3.43751 21.4989V21.1292C3.43751 20.7562 3.43645 20.3536 3.43964 19.8829C3.43645 19.4579 3.43645 19.0562 3.43751 18.6822V18.3125C3.43751 13.0999 4.54782 9.54794 6.92889 7.1435C11.0524 3.43644 18.9107 3.43644 21.5 3.43644C24.0893 3.43644 31.9465 3.43644 36.0701 7.1435C38.4522 9.54794 39.5614 13.0999 39.5614 18.3125V18.6822C39.5614 19.0552 39.5625 19.4579 39.5593 19.9286C39.5625 20.3546 39.5625 20.7562 39.5625 21.1292Z" fill="url(#paint1_linear_2386_9)"/>
<defs>
<linearGradient id="paint0_linear_2386_9" x1="10.9929" y1="-10.3442" x2="32.2876" y2="50.9642" gradientUnits="importrSpaceOnimport">
<stop stop-color="#FCFCFC"/>
<stop offset="0.495" stop-color="#F4F4F4"/>
<stop offset="0.946" stop-color="#E8E8E8"/>
<stop offset="1" stop-color="#E8E8E8"/>
</linearGradient>
<linearGradient id="paint1_linear_2386_9" x1="41.271" y1="47.4218" x2="-1.32036" y2="-11.7169" gradientUnits="importrSpaceOnimport">
<stop stop-color="#912FBD"/>
<stop offset="1" stop-color="#9332BF"/>
</linearGradient>
</defs>
</svg>
