<svg width="47" height="47" viewBox="0 0 47 47" fill="none" xmlns="http://www.w3.org/2000/svg">
<path d="M1.57791 45.618L4.66479 34.3487C2.76041 31.051 1.75895 27.3087 1.7601 23.4759C1.76583 11.4848 11.5237 1.72916 23.516 1.72916C29.3357 1.73145 34.7968 3.99676 38.9046 8.10686C43.0112 12.2181 45.2731 17.6814 45.2708 23.4931C45.2663 35.4843 35.506 45.241 23.516 45.241H23.5069C19.8666 45.2399 16.2881 44.3267 13.1107 42.593L1.57791 45.618Z" fill="white"/>
<path d="M1.57792 46.1909C1.42667 46.1909 1.28001 46.1314 1.17115 46.0214C1.02792 45.8758 0.971779 45.6639 1.02563 45.4679L4.04949 34.4267C2.1749 31.0969 1.18605 27.3156 1.18834 23.4771C1.19292 11.1685 11.2087 1.15625 23.5161 1.15625C29.4858 1.15854 35.0947 3.48344 39.3102 7.7024C43.5257 11.9225 45.8461 17.5302 45.8438 23.4931C45.8392 35.8005 35.8223 45.814 23.5161 45.814C19.862 45.8128 16.2469 44.911 13.0386 43.2049L1.72345 46.1715C1.67532 46.1852 1.6272 46.1909 1.57792 46.1909Z" fill="white"/>
<path d="M23.516 1.72918C29.3357 1.73147 34.7968 3.99678 38.9046 8.10689C43.0112 12.2181 45.2731 17.6815 45.2708 23.4931C45.2663 35.4843 35.506 45.2411 23.516 45.2411H23.5069C19.8666 45.2399 16.2881 44.3267 13.1107 42.593L1.57791 45.618L4.66479 34.3488C2.76041 31.0511 1.75896 27.3088 1.7601 23.4759C1.76583 11.4848 11.5237 1.72918 23.516 1.72918ZM23.516 0.583344C10.8935 0.583344 0.619998 10.8523 0.614269 23.4759C0.613123 27.334 1.58708 31.1358 3.43417 34.5012L0.472186 45.3167C0.364477 45.712 0.474477 46.1337 0.763227 46.4247C0.980936 46.6447 1.27541 46.765 1.57791 46.765C1.67531 46.765 1.77271 46.7524 1.86896 46.7272L12.9686 43.8168C16.2091 45.4989 19.8414 46.3869 23.5069 46.388C36.1385 46.388 46.4121 36.1179 46.4178 23.4943C46.4201 17.3767 44.0402 11.6246 39.717 7.29793C35.3915 2.97011 29.6382 0.585635 23.516 0.583344Z" fill="#CFD8DC"/>
<path d="M36.3058 10.7033C32.8912 7.28646 28.3526 5.40386 23.5218 5.40271C13.5484 5.40271 5.43708 13.5106 5.4325 23.4771C5.43135 26.8928 6.38698 30.218 8.19739 33.0975L8.62822 33.7816L6.80062 40.4515L13.6447 38.6571L14.3058 39.049C17.081 40.6967 20.2642 41.5675 23.5092 41.5686H23.516C33.4825 41.5686 41.5938 33.4596 41.5973 23.492C41.5984 18.6623 39.7204 14.1202 36.3058 10.7033Z" fill="#40C351"/>
<path fill-rule="evenodd" clip-rule="evenodd" d="M18.0779 14.3849C17.6711 13.4797 17.2426 13.4613 16.8542 13.4453C16.5368 13.4316 16.1747 13.4327 15.8126 13.4327C15.4505 13.4327 14.8616 13.5691 14.3631 14.1133C13.8647 14.6576 12.4599 15.9719 12.4599 18.6462C12.4599 21.3206 14.4078 23.9056 14.6794 24.2677C14.9509 24.6298 18.44 30.2936 23.9652 32.473C28.5566 34.2834 29.4916 33.9236 30.4884 33.8331C31.4853 33.7426 33.7048 32.5188 34.1574 31.2493C34.61 29.9797 34.61 28.8923 34.4748 28.6654C34.3384 28.4385 33.9764 28.3033 33.4332 28.0306C32.8901 27.7579 30.2169 26.4436 29.7184 26.2626C29.22 26.0816 28.8579 25.991 28.4947 26.5353C28.1326 27.0784 27.091 28.3033 26.7736 28.6654C26.4563 29.0286 26.1389 29.0745 25.5957 28.8018C25.0526 28.5291 23.3018 27.9561 21.2244 26.1045C19.6088 24.6642 18.5179 22.8847 18.2005 22.3404C17.8831 21.7973 18.1662 21.5028 18.4389 21.2312C18.6829 20.9872 18.982 20.5964 19.2547 20.2791C19.5263 19.9617 19.6168 19.7348 19.7978 19.3727C19.9789 19.0095 19.8883 18.6921 19.752 18.4205C19.6179 18.1478 18.5615 15.4597 18.0779 14.3849Z" fill="white"/>
</svg>
