<svg width="379" height="186" viewBox="0 0 379 186" fill="none" xmlns="http://www.w3.org/2000/svg">
<g clip-path="url(#clip0_3489_2578)">
<rect width="379" height="187" fill="#F8F8FA"/>
<circle cx="228.5" cy="44.5" r="32.5" fill="#F3E9EA"/>
<path d="M177.61 31C201.896 31 203.769 49.2922 226 49.8201C242.721 50.2171 231.89 47.4287 248.446 49.8201C272.945 53.3586 293.016 79.5237 317.765 79.3218C333.671 79.192 341.377 64.798 357.231 66.0969C368.417 67.0133 368.363 75.7612 380 73.7266V165H-1V83.391C-1 83.391 21.6114 66.5175 42.5 63C60.8581 59.9086 53.9117 67.0791 72.5 66.0969C111.368 64.043 127.518 31 177.61 31Z" fill="#D0DBE8" stroke="#EAE1C4"/>
<path d="M380 164V101.164C380 101.164 349.142 110.15 329.736 107.196C309.361 104.094 300.082 91.2459 279.472 91.1097C253.228 90.9364 217.145 116.244 217.145 116.244C217.145 116.244 176.591 134.5 149.289 133.336C111.397 131.72 89.8625 126.149 61.3272 101.164C54.2259 94.9456 32.8358 83.2145 24.6346 78.5424C9.28395 69.7975 -0.497361 74.0182 -0.497361 74.0182H-1V164H380Z" fill="#B1BABC" stroke="#EAE1C4"/>
<path d="M380 175V138C380 138 365.404 145.5 324.637 131C288.101 118.005 266.619 148.229 232.532 131C203.844 116.5 163.58 87 156.534 87C149.487 87 92.3786 130.702 45.8071 131C27.3505 131.118 -1 124.5 -1 124.5V175H380Z" fill="url(#paint0_linear_3489_2578)" stroke="#EAE1C4"/>
<g filter="url(#filter0_gf_3489_2578)">
<path d="M0 -12H348V1.5L326 18L276.5 10L258.5 22L235 18L207.5 10L177.5 18L152 10L114 28.5H74L44.5 18L0 -3V-12Z" fill="#E1E1E3"/>
</g>
<path d="M22.3251 147.009C13.3308 147.118 -1 149.553 -1 149.553L-1 175L321 170.42L294.83 162.786C294.83 162.786 278.073 157.942 266.954 156.678C254.612 155.275 247.497 157.567 235.095 156.678C226.378 156.054 221.633 154.496 212.908 153.96C204.042 153.415 199.006 154.64 190.152 153.96C181.848 153.322 177.431 151.106 169.102 150.804C160.409 150.489 155.608 152.939 146.915 152.607C137.425 152.244 133.242 147.937 123.021 148.535C112.695 149.14 106.609 150.199 96.2827 150.804C86.0615 151.403 84.8506 149.896 74.6643 148.535C66.1173 147.393 60.4913 148.498 51.9081 148.535C40.0758 148.587 34.157 146.864 22.3251 147.009Z" fill="#7EAEE2"/>
<path d="M29.4182 174.164C27.8975 174.14 32.9723 174.098 29.6018 174.078C30.3044 174.064 31.0112 174.049 31.7138 174.035C31.8924 174.057 32.0753 174.079 32.2539 174.102C31.3103 174.122 30.3664 174.143 29.4182 174.164C29.4182 174.164 29.4182 174.164 29.4182 174.164ZM28.1342 174.495C28.9979 174.411 31.7452 174.353 28.7762 174.33C28.5406 174.357 28.2993 174.385 28.0637 174.413C27.0329 174.409 25.9959 174.405 24.9651 174.4C24.5947 174.415 24.2246 174.43 23.8542 174.444C23.3817 174.408 22.9134 174.372 22.4408 174.337C22.86 174.337 23.2847 174.337 23.7038 174.337C25.3598 174.279 26.8337 174.249 29.0825 174.211C28.8849 174.203 28.6869 174.196 28.4892 174.189C29.6308 174.19 30.7718 174.191 31.9086 174.192C30.9218 174.222 29.8185 174.257 28.9039 174.285C30.3687 174.331 32.9501 174.257 34.2938 174.224C36.1237 174.179 35.7104 174.217 37.0682 174.184C37.2849 174.179 37.3092 174.154 37.7377 174.148C39.9002 174.115 44.1004 174.068 41.6449 174.161C38.0856 174.204 35.0509 174.294 31.5588 174.327C32.4835 174.38 30.6442 174.429 28.1342 174.495ZM93.5159 173.352C92.4378 173.399 90.2409 173.417 88.7524 173.416C88.7507 173.416 88.7489 173.416 88.7473 173.416C88.4197 173.416 87.6774 173.383 88.7466 173.37C90.4897 173.348 91.3334 173.404 92.2477 173.345C92.6572 173.348 93.0872 173.349 93.5159 173.352ZM97.304 173.294C98.3734 173.295 97.8892 173.353 96.5502 173.358C96.5502 173.358 96.5502 173.358 96.5502 173.358C95.9914 173.361 97.0877 173.305 95.0847 173.374C94.675 173.348 94.2717 173.325 93.8668 173.299C94.3575 173.292 94.8048 173.285 95.3195 173.277C94.9739 173.335 96.2349 173.292 97.304 173.294ZM43.4513 174.106C43.6189 174.057 42.9148 174.067 41.7152 174.051C42.8469 174.037 43.9789 174.022 45.1057 174.008C44.5524 174.041 44.0047 174.074 43.4513 174.106ZM16.8646 174.477C16.863 174.477 16.8612 174.477 16.8595 174.477C16.4888 174.49 16.117 174.503 15.7511 174.515C15.5294 174.502 15.31 174.488 15.0882 174.474C13.7784 174.509 12.4616 174.543 11.1518 174.578C11.3103 174.524 13.6619 174.499 14.9569 174.445C16.8833 174.433 17.8121 174.449 17.9379 174.491C17.5815 174.487 17.2259 174.482 16.8646 174.477ZM310.499 167.422C310.074 167.313 309.655 167.206 309.23 167.097C309.788 167.266 310.341 167.433 310.903 167.604C312.395 167.975 312.518 168.068 314.452 168.628C318.717 169.864 319.113 169.924 320.978 170.494L320.999 170.342C320.239 170.344 319.243 170.337 317.681 170.32C319.801 170.293 320.53 170.269 320.997 170.242L320.95 170.59C320.446 170.466 320.248 170.441 318.879 170.069C318.353 169.876 320.944 170.54 319.21 170.015C316.203 169.181 313.311 168.377 309.98 167.433C310.075 167.468 310.169 167.502 310.265 167.537C310.793 167.687 311.317 167.835 311.845 167.985C311.271 167.836 310.711 167.691 310.127 167.54C310.869 167.714 309.001 167.193 309.263 167.22C309.38 167.233 310.211 167.445 310.702 167.567C309.453 167.192 308.17 166.807 306.907 166.427C307.568 166.603 308.228 166.778 308.884 166.952C309.421 167.108 309.953 167.263 310.489 167.419C310.492 167.42 310.496 167.421 310.499 167.422ZM32.3851 147.615C34.0363 147.684 37.0346 147.955 38.6083 148.153C36.5305 147.965 34.46 147.768 32.3851 147.615ZM18.0641 174.526C17.8765 174.52 17.6945 174.514 17.5068 174.509C18.3349 174.482 19.1677 174.455 19.9957 174.427C20.1549 174.449 20.3178 174.471 20.4818 174.492C19.6777 174.503 18.8682 174.514 18.0641 174.526ZM71.0522 173.745C70.4463 173.755 70.3927 173.755 69.638 173.763C69.6389 173.763 69.6397 173.763 69.6406 173.763C69.3414 173.766 66.8385 173.787 67.1172 173.765C68.3598 173.747 69.6852 173.728 70.9567 173.71C70.9954 173.722 71.0039 173.734 71.0522 173.745ZM56.4254 173.942C56.4237 173.942 56.422 173.942 56.4203 173.942C55.968 173.946 55.5395 173.946 55.0727 173.952C56.7527 173.899 57.0189 173.947 58.5453 173.911C60.0716 173.874 61.0145 173.832 62.3108 173.885C61.8294 173.903 61.311 173.925 60.8151 173.945C58.6476 173.947 58.0644 173.982 56.3266 174.035C56.36 174.004 56.3921 173.973 56.4254 173.942ZM304.449 170.448C304.036 170.489 303.573 170.461 303.526 170.461C303.526 170.461 303.527 170.461 303.528 170.461C299.86 170.546 304.005 170.435 300.543 170.479C301.058 170.463 301.564 170.446 302.075 170.43C302.865 170.436 303.679 170.443 304.449 170.448ZM185.252 172.14C185.219 172.13 185.178 172.121 185.144 172.111C187.225 172.084 187.755 172.036 189.484 172.048C188.073 172.079 186.663 172.11 185.252 172.14C185.252 172.14 185.252 172.14 185.252 172.14ZM81.5401 173.671C79.2333 173.723 77.527 173.756 75.3111 173.756C75.3094 173.756 75.3076 173.756 75.3059 173.756C75.1781 173.756 75.7957 173.726 75.6289 173.723C75.1718 173.733 74.6999 173.744 74.238 173.755C74.1752 173.738 74.1153 173.722 74.0525 173.706C75.3528 173.692 76.6538 173.679 77.959 173.665C77.7661 173.658 77.5687 173.65 77.3759 173.643C78.4834 173.622 79.5867 173.601 80.6942 173.58C80.3094 173.614 79.9256 173.648 79.5456 173.681C80.2101 173.678 80.8755 173.674 81.5401 173.671ZM219.892 171.76C219.526 171.754 220.203 171.725 219.635 171.724C219.066 171.722 218.019 171.758 218.264 171.723C219.029 171.708 219.832 171.692 220.612 171.676C218.102 171.655 215.599 171.742 215.56 171.672C217.968 171.656 219.948 171.62 222.279 171.567C222.183 171.624 219.853 171.705 221.321 171.737C220.85 171.744 220.354 171.752 219.897 171.759C219.895 171.759 219.894 171.759 219.892 171.76ZM-1.49617 160.362C-1.49192 158.936 -1.51469 155.67 -1.48219 153.868C-1.47418 153.425 -1.37044 151.948 -1.35677 151.956C-1.31072 151.999 -1.30445 153.802 -1.27444 151.871C-1.27413 152.521 -1.2724 153.151 -1.27157 153.796C-1.24062 153.681 -1.20976 153.566 -1.17892 153.455C-1.18358 152.67 -1.18826 151.884 -1.19302 151.098C-1.18277 151.06 -1.17251 151.022 -1.16226 150.983C-1.16205 153.806 -1.12251 152.139 -1.08566 153.604C-1.06704 152.255 -1.04851 150.897 -1.02988 149.553C-1.03216 150.329 -1.03384 151.244 -1.03653 151.928C-0.984068 152.019 -0.996576 150.387 -0.986853 150.108C-0.931903 148.533 -0.959637 156.551 -0.883282 157.207C-0.874797 155.926 -0.866517 154.582 -0.858137 153.273C-0.848719 153.648 -0.839296 154.029 -0.829879 154.404C-0.882542 157.376 -0.901198 160.708 -0.933999 164.171C-0.931828 164.484 -0.929598 164.797 -0.92753 165.105C-0.90384 165.014 -0.88024 164.927 -0.85655 164.836C-0.853755 165.308 -0.850983 165.786 -0.848188 166.258C-0.926214 164.866 -0.92515 166.793 -0.972755 169.12C-1.00018 167.882 -0.983551 166.355 -1.03464 166.461C-1.00977 169.149 -1.02288 172.128 -1.02462 175L-1.02458 175.025L-0.99965 175.025C0.667214 175.002 2.29811 174.976 3.81521 174.938C4.84075 174.912 4.83657 174.847 7.24822 174.818C7.16648 174.827 7.1526 174.84 7.09979 174.85C11.2702 174.759 13.8005 174.705 18.1356 174.675C17.8848 174.655 17.6384 174.635 17.3877 174.615C16.468 174.639 15.5466 174.665 14.6318 174.689C14.0053 174.659 14.9301 174.629 12.1851 174.668C9.93581 174.7 11.2751 174.699 10.6635 174.719C9.83558 174.747 9.10829 174.726 8.21768 174.756C7.52912 174.78 8.27472 174.801 6.47813 174.819C7.19991 174.767 7.93637 174.713 8.66299 174.66C9.10137 174.663 9.53648 174.667 9.97487 174.67C9.53196 174.688 9.09652 174.705 8.65362 174.722C10.2136 174.68 11.6877 174.64 13.3007 174.596C12.7766 174.664 14.4439 174.618 15.3492 174.598C16.7596 174.567 15.5517 174.625 16.4763 174.605C17.4008 174.585 18.3975 174.524 20.0688 174.511C19.1735 174.55 20.3923 174.557 20.1571 174.585C19.9215 174.613 18.1539 174.644 19.8525 174.647C23.1176 174.58 19.5729 174.536 21.7781 174.489C24.4266 174.433 25.059 174.578 24.2701 174.623C23.6491 174.657 21.5113 174.683 20.8855 174.717C24.715 174.71 24.7469 174.617 25.4016 174.589C27.7798 174.49 26.1842 174.688 29.0006 174.585C28.9481 174.618 28.9055 174.648 28.8531 174.681C29.3391 174.668 29.6617 174.655 30.249 174.642C28.5161 174.603 29.9337 174.585 30.6613 174.575C31.8076 174.558 30.0366 174.552 30.34 174.54C31.1584 174.507 32.4534 174.498 31.6586 174.481C32.0152 174.489 32.4017 174.497 32.7679 174.505C34.1068 174.469 37.2522 174.287 34.2572 174.358C34.5358 174.303 35.5051 174.313 36.2614 174.31C37.0174 174.307 37.003 174.275 37.6676 174.272C40.3116 174.258 38.5831 174.338 38.1647 174.388C41.6558 174.308 38.2373 174.337 43.2685 174.245C43.7545 174.203 41.429 174.198 43.3647 174.15C43.7221 174.206 45.1484 174.23 47.9272 174.211C48.1968 174.193 48.4655 174.175 48.735 174.157C50.253 174.193 49.4783 174.263 52.2852 174.152C50.7797 174.304 51.8149 174.206 54.3296 174.223C54.8403 174.226 53.6609 174.27 54.3739 174.274C54.6972 174.275 55.4812 174.244 56.2706 174.248C56.656 174.25 58.458 174.275 59.7051 174.233C58.7891 174.183 61.1584 174.096 59.1253 174.073C62.8821 174.032 65.5108 173.965 61.3026 174.11C62.2565 174.116 63.2112 174.121 64.1651 174.127C64.8295 174.102 65.4997 174.078 66.1689 174.053C66.2707 174.104 66.1694 174.12 68.7876 174.073C67.6517 174.102 66.5205 174.13 65.3798 174.159C65.3414 174.17 65.1828 174.183 65.2211 174.192C66.6182 174.153 70.5526 174.088 71.5059 174.061C72.4594 174.033 70.6177 174.056 70.8921 174.039C73.1777 173.896 72.9975 173.98 74.6385 173.938C75.6016 173.913 73.3015 173.933 73.8168 173.921C75.7273 173.877 76.6145 173.922 78.3088 173.899C77.7065 173.874 77.109 173.849 76.5211 173.824C78.2983 173.8 80.2794 173.773 81.9312 173.738C82.5796 173.725 82.0892 173.707 82.1951 173.704C82.7204 173.688 84.8584 173.644 85.0847 173.641C86.7887 173.617 86.8378 173.65 88.4936 173.628C87.8437 173.641 87.2325 173.652 86.597 173.664C86.3088 173.723 86.015 173.783 85.7268 173.843C87.3496 173.824 88.9732 173.804 90.6008 173.785C89.4111 173.784 88.2171 173.782 87.0274 173.781C88.8858 173.709 90.7442 173.638 92.6025 173.567C93.571 173.58 94.5354 173.594 95.5039 173.608C98.1326 173.563 97.6017 173.459 98.8503 173.539C99.6252 173.52 100.4 173.501 101.175 173.481C101.065 173.497 100.955 173.513 100.845 173.528C101.779 173.506 102.713 173.484 103.647 173.462C102.664 173.427 101.7 173.389 100.727 173.354C102.565 173.318 102.601 173.359 102.876 173.366C103.603 173.383 105.046 173.325 105.625 173.342C105.82 173.348 104.018 173.402 104.64 173.425C104.761 173.429 107.175 173.512 108.714 173.463C108.685 173.442 108.566 173.418 108.503 173.396C110.573 173.353 111.63 173.449 111.356 173.484C112.459 173.447 114.071 173.422 114.297 173.385C114.86 173.376 115.419 173.367 115.983 173.358C115.397 173.449 117.747 173.401 117.9 173.328C116.932 173.34 115.963 173.351 114.995 173.363C115.725 173.266 112.783 173.255 118.905 173.249C120.076 173.277 116.825 173.272 117.779 173.293C119.436 173.289 120.991 173.25 122.566 173.259C124.526 173.271 122.116 173.343 126.68 173.228C116.608 173.245 128.06 173.123 132.789 173.017C134.092 173.123 138.086 173.105 143.586 172.99C143.012 172.964 141.282 173.006 140.285 173.009C139.288 173.012 140.366 172.976 139.124 172.977C137.882 172.979 135.243 172.994 133.985 172.988C135.05 172.953 140.307 172.832 136.831 172.937C139.427 172.935 140.646 172.952 143.862 172.913C144.825 172.845 144.753 172.813 147.888 172.767C146.035 172.868 149.598 172.869 148.815 172.958C146.591 172.972 147.833 172.879 146.547 172.861C146.415 172.859 144.344 172.908 143.862 172.913C145.953 172.951 146.677 172.966 145.392 173.064C146.87 173.036 147.79 173.033 147.924 172.993C148.233 173.005 148.543 173.018 148.846 173.03C149.328 173.023 149.761 173.015 150.271 173.008C149.568 172.96 150.93 172.976 151.897 172.936C152.865 172.896 151.566 172.869 154.224 172.831C153.338 172.83 152.527 172.83 151.67 172.829C153.384 172.79 155.104 172.75 156.818 172.711C155.613 172.693 153.003 172.677 153.074 172.63C153.864 172.636 156.568 172.567 156.864 172.561C158.011 172.54 157.386 172.578 157.473 172.578C159.274 172.567 160.757 172.535 161.442 172.57C162.794 172.531 163.815 172.528 165.25 172.506C166.04 172.494 165.886 172.464 166.348 172.464C169.421 172.461 166.495 172.545 172.421 172.38C171.703 172.368 170.994 172.355 170.277 172.342C170.946 172.324 171.611 172.306 172.281 172.288C172.729 172.285 173.173 172.283 173.621 172.281C173.612 172.33 173.601 172.38 173.592 172.43C174.083 172.425 174.576 172.421 175.068 172.417C174.225 172.433 173.38 172.45 172.537 172.467C172.461 172.477 172.389 172.487 172.312 172.496C173.564 172.492 174.812 172.488 176.065 172.484C176.089 172.466 176.112 172.448 176.136 172.431C178.958 172.415 179.026 172.428 181.708 172.343C183.774 172.314 185.455 172.218 186.649 172.171C187.078 172.175 187.507 172.178 187.941 172.182C188.215 172.163 188.492 172.145 188.767 172.127C189.311 172.139 189.863 172.151 190.407 172.163C190.71 172.114 190.867 172.098 188.743 172.112C189.47 172.045 193.209 172.017 194.731 172.014C195.885 172.012 194.605 172.077 194.75 172.081C195.232 172.093 197.135 172.049 197.534 172.047C199.225 172.036 200.409 172.017 201.936 172.006C202.233 172.004 203.065 172.021 203.135 172.021C203.684 172.019 205.04 172.014 205.194 172.012C213.144 171.921 204.648 171.913 212.04 171.822C211.818 171.808 211.615 171.794 211.398 171.78C211.956 171.771 212.52 171.762 213.079 171.753C213.787 171.757 212.931 171.795 214.337 171.754C214.245 171.776 214.154 171.799 214.058 171.821C214.669 171.801 215.259 171.781 215.885 171.761C216.868 171.82 220.455 171.785 220.201 171.874C220.115 171.904 217.573 171.97 218.917 171.982C220.009 171.972 219.269 171.948 219.715 171.94C222.932 171.882 222.746 171.933 224.06 171.901C224.267 171.878 224.484 171.853 224.696 171.829C225.192 171.828 225.689 171.827 226.19 171.826C226.305 171.811 226.425 171.795 226.541 171.779C226.074 171.785 225.548 171.792 225.119 171.797C225.716 171.734 231.204 171.632 229.112 171.708C228.26 171.739 226.699 171.753 227.686 171.803C229.155 171.773 230.821 171.74 232.367 171.708C232.415 171.721 232.46 171.735 232.509 171.748C234.592 171.709 232.696 171.681 232.7 171.651C233.176 171.644 233.658 171.636 234.134 171.629C234.337 171.639 234.529 171.65 234.741 171.66C234.76 171.639 235.026 171.586 236.447 171.584C237.36 171.583 235.923 171.657 237.664 171.624C237.533 171.593 236.904 171.562 238.843 171.524C239.037 171.555 239.303 171.583 239.453 171.617C241.865 171.55 242.964 171.588 245.795 171.509C247.591 171.459 250.05 171.337 251.213 171.454C252.527 171.439 252.11 171.412 252.498 171.399C254.333 171.337 255.699 171.381 256.041 171.38C258.222 171.373 259.199 171.337 260.977 171.342C260.88 171.318 260.827 171.296 260.75 171.273C259.122 171.333 258.298 171.343 256.015 171.367C256.78 171.351 257.546 171.335 258.312 171.32C258.186 171.301 258.062 171.283 257.941 171.265C250.882 171.444 252.527 171.296 258.446 171.184C258.957 171.214 259.486 171.244 259.992 171.274C263.411 171.169 265.021 171.195 268.888 171.152C269.348 171.146 271.022 171.101 271.742 171.09C271.73 171.09 271.718 171.09 271.706 171.09C272.153 171.049 271.546 171.041 271.474 171.011C271.864 171.001 272.254 170.992 272.644 170.982C273.515 170.994 273.209 171.018 274.923 170.988C274.692 170.967 274.463 170.947 274.232 170.926C276.11 170.899 277.34 170.907 279.088 170.871C278.794 170.884 278.504 170.897 278.211 170.91C282.016 170.879 278.99 171.062 281.864 170.952C282.047 170.961 282.226 170.971 282.409 170.981C281.224 171.001 280.039 171.02 278.859 171.04C278.836 171.058 278.81 171.075 278.791 171.093C280.057 171.07 281.33 171.046 282.597 171.023C281.672 171.048 280.742 171.073 279.818 171.097C281.287 171.085 282.756 171.072 284.225 171.059C282.664 171.018 284.686 170.982 284.305 170.924C286.906 170.939 288.95 170.979 292.981 170.878C293.78 170.858 293.345 170.82 295.614 170.841C295.064 170.779 297.905 170.706 297.539 170.644C296.75 170.659 295.931 170.673 295.165 170.687C296.037 170.698 296.183 170.759 294.859 170.797C293.169 170.845 290.703 170.836 290.804 170.905C290.13 170.912 289.503 170.919 288.849 170.925C289.118 170.904 289.382 170.882 289.646 170.861C287.783 170.915 286.613 170.923 285.716 170.892C287.936 170.85 290.151 170.808 292.371 170.767C292.044 170.768 291.712 170.77 291.385 170.772C293.065 170.703 291.331 170.685 294.466 170.631C294.447 170.651 294.432 170.672 294.413 170.693C295.554 170.622 298.679 170.578 297.681 170.529C298.625 170.535 298.818 170.544 299.352 170.503C301.843 170.515 303.443 170.553 302.558 170.639C303.482 170.614 304.407 170.589 305.326 170.564C304.792 170.552 304.256 170.54 303.722 170.527C305.33 170.506 306.951 170.484 308.554 170.462C308.709 170.519 305.458 170.524 306.397 170.563C306.585 170.571 307.45 170.536 307.678 170.539C310.077 170.569 306.311 170.576 307.019 170.615C310.593 170.58 307.734 170.703 312.655 170.564C312.786 170.579 312.926 170.594 313.046 170.609C314.755 170.586 314.616 170.55 316.084 170.521C317.004 170.504 318.159 170.555 319.175 170.494C319.352 170.484 317.723 170.428 320.999 170.381L320.989 170.456C320.916 170.435 320.84 170.413 320.761 170.39C318.086 169.606 319.216 169.876 317.775 169.434C316.334 168.992 313 168.103 312.05 167.731C312.805 167.964 313.769 168.252 314.607 168.507C314.955 168.589 315.293 168.67 315.635 168.751C313.705 168.212 311.724 167.606 310.418 167.269C307.87 166.458 304.983 165.679 305.739 165.976C306.587 166.212 305.677 165.913 306.844 166.275C306.96 166.327 307.082 166.38 307.197 166.431C305.2 165.847 303.813 165.442 304.738 165.658C304.429 165.566 304.122 165.476 303.813 165.384C303.747 165.404 303.687 165.426 303.621 165.446C303.25 165.342 302.877 165.238 302.506 165.134C302.097 165.006 301.687 164.878 301.273 164.749C301.85 164.855 302.803 165.131 299.659 164.179C299.644 164.196 299.625 164.212 299.61 164.229C297.351 163.546 296.989 163.399 294.837 162.761C294.502 162.663 294.084 162.544 293.608 162.412C294.064 162.526 294.49 162.639 294.844 162.738C296.604 163.238 297.53 163.576 297.556 163.46C298.191 163.655 298.832 163.852 299.467 164.047C299.57 164.056 299.672 164.064 299.771 164.071C298.383 163.671 296.618 163.182 294.858 162.692C292.284 161.99 289.671 161.333 288.309 160.927C288.016 160.863 287.747 160.804 287.455 160.742C285.192 160.114 284.19 159.994 281.887 159.383C281.648 159.324 282.179 159.312 279.158 158.645C279.23 158.677 279.263 158.71 279.32 158.742C278.669 158.589 278.019 158.439 277.37 158.294C277.249 158.283 277.122 158.27 277.001 158.26C278.12 158.497 279.229 158.743 280.345 159C279.417 158.796 278.483 158.597 277.554 158.406C278.759 158.684 279.306 158.807 278.568 158.683C277.518 158.458 276.464 158.242 275.409 158.035C275.298 158.023 275.189 158.011 275.079 157.999C275.583 158.126 276.094 158.256 276.597 158.388C273.862 157.803 271.465 157.376 269.349 157.012C268.987 156.954 270.28 157.087 267.799 156.787C267.763 156.764 267.698 156.74 267.657 156.717C267.409 156.69 267.177 156.667 266.958 156.645C264.434 156.416 263.361 156.309 260.437 156.186C262.495 156.285 260.659 156.2 260.132 156.212C259.772 156.216 261.175 156.248 261.016 156.259C260.86 156.265 259.031 156.285 260.592 156.324C263.33 156.325 264.63 156.48 266.947 156.744C267.855 156.853 268.935 156.993 270.316 157.194C269.564 157.091 268.807 156.996 268.061 156.914C268.409 156.969 268.724 157.022 269.107 157.087C266.772 156.748 267.421 156.857 266.939 156.81C266.859 156.803 266.75 156.793 266.594 156.778C265.477 156.669 263.435 156.517 262.067 156.465C261.635 156.449 262.096 156.439 261.119 156.402C260.461 156.372 258.643 156.392 258.226 156.354C257.954 156.33 260.867 156.222 256.835 156.263C256.076 156.249 258.01 156.221 258.05 156.222C258.402 156.181 255.921 156.187 254.777 156.269C254.684 156.275 255.588 156.266 254.606 156.315C252.274 156.441 250.927 156.504 249.414 156.55C249.254 156.605 247.295 156.795 244.849 156.871C244.724 156.89 244.604 156.908 244.48 156.926C244.861 156.906 245.24 156.884 245.619 156.86C246.035 156.851 246.471 156.837 246.877 156.826C244.418 156.958 244.07 157.023 242.891 157.076C238.846 157.196 241.298 157 242.026 156.965C242.549 156.972 243.062 156.976 243.579 156.976C243.521 156.96 243.462 156.945 243.409 156.929C237.361 156.986 242.486 156.852 239.42 156.802C238.785 156.856 237.194 156.842 235.096 156.668C234.591 156.627 234.063 156.577 233.517 156.518C233.195 156.49 232.885 156.461 232.565 156.429C232.511 156.436 232.51 156.455 232.423 156.454C228.982 156.101 228.397 155.839 228.073 155.791C226.643 155.531 225.514 155.424 225.09 155.358C223.307 155.079 222.793 154.958 221.09 154.719C219.255 154.471 220.505 154.676 219.945 154.62C219.494 154.573 218.049 154.391 217.445 154.344C217.688 154.356 217.953 154.372 218.191 154.386C216.397 154.151 214.909 153.989 212.914 153.858C212.794 153.85 212.673 153.842 212.55 153.835C210.091 153.805 208.002 153.639 208.85 153.791C210.749 153.82 211.882 153.897 212.906 153.991C212.993 153.999 213.079 154.007 213.164 154.015C213.079 154.01 212.992 154.005 212.906 154C211.639 153.927 210.37 153.885 209.106 153.875C208.709 153.854 208.435 153.836 207.963 153.82C206.954 153.85 204.61 153.9 203.691 153.952C199.388 154.177 200.721 154.223 196.784 154.207C199.621 154.144 199.613 154.073 202.423 153.961C201.815 153.952 200.388 154.022 201.31 153.939C198.593 154.064 199.471 154.063 198.415 154.132C197.502 154.193 195.664 154.207 195.768 154.241C195.579 154.22 195.433 154.2 195.247 154.178C193.544 154.168 191.853 154.099 190.151 153.968C190.088 153.963 190.024 153.958 189.961 153.953C190.024 153.957 190.088 153.96 190.152 153.963C190.846 153.996 191.525 154.019 192.218 154.033C191.647 153.997 191.081 153.955 190.52 153.906C190.402 153.9 190.281 153.892 190.158 153.884C185.773 153.696 178.927 151.936 180.027 152.371C177.981 151.945 177.729 151.876 176.617 151.635C176.492 151.625 176.371 151.614 176.245 151.606C174.918 151.358 173.89 151.258 172.709 151.112C171.53 150.973 171.236 150.916 171.06 150.977C170.402 150.908 169.761 150.856 169.102 150.815C168.988 150.808 168.874 150.801 168.761 150.795C168.302 150.8 167.836 150.811 167.381 150.83C166.662 150.824 165.934 150.837 165.216 150.868C164.832 150.905 162.003 151.145 160.77 151.366C159.589 151.495 159.601 151.37 156.842 151.824C156.919 151.844 156.994 151.863 157.07 151.882C156.436 151.974 155.8 152.064 155.16 152.146C155.121 152.141 155.086 152.135 155.047 152.131C155.371 152.09 155.692 152.047 156.016 152.002C155.733 152.027 155.454 152.05 155.176 152.071C154.212 152.23 153.243 152.371 152.266 152.481C153.589 152.385 154.906 152.232 156.218 152.055C154.577 152.321 153.424 152.443 151.984 152.587C150.725 152.637 151.187 152.577 151.694 152.496C151.228 152.535 150.756 152.566 150.292 152.59C150.597 152.518 149.811 152.581 152.527 152.368C152.34 152.372 152.145 152.377 151.965 152.377C151.519 152.415 151.233 152.424 150.74 152.455C149.411 152.54 148.383 152.606 148.474 152.637C148.526 152.657 149.845 152.607 149.792 152.625C149.66 152.675 146.632 152.748 151.004 152.651C149.553 152.757 149.228 152.744 147.626 152.713C147.748 152.733 147.874 152.752 147.994 152.77C147.627 152.762 147.278 152.749 146.91 152.731C146.518 152.712 146.149 152.687 145.759 152.654C146.786 152.673 141.362 152.114 146.257 152.49C144.815 152.402 143.371 152.21 141.958 151.926C142.253 151.975 142.543 152.019 142.841 152.061C143.478 152.174 144.128 152.269 144.772 152.342C144.012 152.245 143.252 152.118 142.501 151.966C140.72 151.652 140.023 151.478 139.21 151.306C141.248 151.861 140.594 151.661 142.204 151.984C142.144 151.998 142.213 152.034 142.068 152.032C141.232 151.848 138.536 151.182 137.92 150.987C136.035 150.436 137.525 150.827 136.268 150.448C135.01 150.064 133.513 149.654 132.481 149.35C132.493 149.382 132.568 149.43 132.637 149.474C130.648 149 131.044 149.09 130.84 149.034C127.899 148.414 126.088 148.332 123.019 148.492C122.623 148.517 122.225 148.543 121.785 148.572C122.2 148.552 122.6 148.534 123.02 148.516C123.105 148.513 123.189 148.509 123.274 148.507C123.185 148.513 123.101 148.519 123.021 148.526C121.182 148.676 121.675 148.647 123.023 148.571C123.544 148.542 124.18 148.52 124.852 148.524C124.175 148.524 123.578 148.55 123.024 148.587C121.675 148.68 120.645 148.779 119.456 148.877C117.784 149.012 114.924 149.241 113.875 149.324C116.264 149.063 118.849 148.865 121.509 148.683C121.207 148.674 120.908 148.67 120.594 148.661C118.982 148.833 118.038 148.872 117.508 148.908C115.941 149.016 115.993 149.065 115.045 149.096C115.086 149.111 115.116 149.124 115.155 149.138C111.927 149.426 108.446 149.765 106.354 150.036C106.158 150.009 106.009 149.98 105.784 149.956C104.422 150.121 103.249 150.192 102.098 150.296C100.952 150.399 101.39 150.401 100.043 150.519C99.7962 150.54 99.2674 150.556 98.6596 150.615C98.2403 150.656 97.0985 150.791 96.285 150.844C95.8705 150.872 95.5609 150.876 95.4694 150.844C94.3092 150.901 93.2113 150.931 92.0781 150.929C93.1831 150.923 94.2896 150.883 95.393 150.823C94.4427 150.843 93.5072 150.847 92.5657 150.828C92.4449 150.853 92.325 150.878 92.2114 150.902C89.6665 150.928 87.8284 150.753 85.2967 150.339C84.8752 150.266 85.8596 150.495 83.9926 150.143C82.1256 149.783 80.7612 149.381 77.5593 148.892C77.3863 148.866 76.4448 148.783 75.2968 148.577C75.0376 148.529 76.1367 148.669 75.5376 148.57C75.3785 148.544 75.0668 148.496 74.677 148.44C73.659 148.288 72.1882 148.135 72.0325 148.1C72.0603 148.114 72.2286 148.141 72.31 148.161C71.8455 148.123 71.3796 148.092 70.9143 148.065C70.8729 148.042 70.8272 148.018 70.7849 147.995C68.119 147.891 66.7438 147.935 62.805 148.061C63.913 148.044 65.0228 148.039 66.1245 148.06C66.4271 148.036 66.7317 148.014 67.03 147.994C68.846 148.009 70.6656 148.102 72.4731 148.284C72.7697 148.288 73.0705 148.295 73.3662 148.304C73.8051 148.356 74.2326 148.411 74.6727 148.472C74.7155 148.478 74.7581 148.484 74.8006 148.49C74.7574 148.491 74.714 148.491 74.6702 148.491C74.5893 148.491 74.5077 148.492 74.4249 148.493C74.505 148.503 74.5853 148.513 74.6659 148.523C75.5439 148.637 76.3994 148.757 77.2579 148.888C76.5193 148.811 75.5626 148.678 74.6613 148.558C73.2369 148.365 72.0008 148.242 72.1461 148.307C71.7209 148.255 71.2927 148.208 70.8692 148.166C70.6759 148.197 69.8122 148.116 68.2762 148.072C68.628 148.101 69.0128 148.134 69.3357 148.167C67.8482 148.065 65.1992 148.085 63.6556 148.14C62.9773 148.16 63.6535 148.105 63.4517 148.109C62.4163 148.127 60.442 148.282 60.0285 148.3C57.5563 148.403 55.9433 148.397 53.2463 148.514C56.0354 148.466 54.5161 148.492 55.5105 148.499C55.8214 148.501 59.424 148.38 54.9128 148.544C54.7084 148.549 53.3445 148.582 51.9083 148.571C49.6493 148.56 47.2413 148.438 48.8861 148.45C47.5617 148.438 46.524 148.416 45.3115 148.371C42.3614 148.061 43.3752 148.245 44.232 148.373C43.7486 148.344 43.2857 148.314 42.7847 148.278C43.8497 148.293 38.4472 147.853 36.6129 147.708C35.9978 147.665 37.7123 147.845 36.2914 147.727C35.617 147.661 34.8487 147.586 34.1362 147.52C35.1677 147.654 33.1338 147.502 33.158 147.555C31.8621 147.409 30.8706 147.257 31.591 147.254C30.5136 147.2 29.4301 147.159 28.3503 147.134C28.8539 147.167 29.3539 147.203 29.8567 147.242C27.2526 147.067 24.0991 147.061 22.3258 147.067C21.715 147.066 21.2577 147.067 21.0691 147.046C20.5975 147.063 20.1339 147.083 19.6609 147.108C19.519 147.133 19.3813 147.158 19.2381 147.183C17.1249 147.288 15.0236 147.46 12.9193 147.666C14.7908 147.463 15.2339 147.394 17.2054 147.258C16.4439 147.296 15.6714 147.342 14.925 147.392C11.9717 147.737 11.5698 147.802 7.13002 148.359C6.93013 148.379 3.57804 148.804 3.45803 148.823C2.94204 148.879 3.71764 148.735 3.48711 148.759C2.84042 148.817 -1.11948 149.369 -1.03389 149.354C-0.119007 148.996 13.1803 147.117 16.8136 146.943C18.6477 146.795 20.4869 146.684 22.3208 146.658C32.3116 146.391 42.0811 148.337 51.9065 148.168C59.4716 148.16 67.1114 147.041 74.7116 148.182C81.9733 149.108 88.9639 151.271 96.2627 150.464C105.17 149.989 114.02 148.691 123.002 148.203C124.715 148.102 126.426 148.13 128.129 148.313C128.514 148.355 128.35 148.318 128.515 148.336C129.538 148.452 130.52 148.67 130.895 148.747C131.684 148.914 131.258 148.795 131.834 148.924C137.027 150.187 141.698 152.171 146.928 152.267C147.68 152.295 148.426 152.304 149.182 152.291C149.574 152.283 149.177 152.316 149.863 152.293C150.22 152.282 151.326 152.195 152.125 152.123C154.917 151.885 157.242 151.456 160.196 151.02C161.809 150.775 164.259 150.502 166.094 150.452C166.907 150.423 167.746 150.403 168.549 150.421C168.794 150.427 168.978 150.435 169.116 150.442C169.61 150.469 169.494 150.485 169.63 150.492C170.394 150.539 170.502 150.512 171.228 150.567C172.574 150.687 172.648 150.709 174.348 150.938C175.565 151.094 178.322 151.605 179.824 151.927C183.017 152.652 186.968 153.405 190.179 153.61C190.499 153.634 190.802 153.654 191.101 153.673C193.074 153.784 193.257 153.804 194.059 153.827C196.9 153.885 199.051 153.75 201.725 153.632C205.274 153.466 208.442 153.39 211.898 153.562C212.461 153.591 212.327 153.554 212.882 153.585C212.898 153.586 212.914 153.587 212.931 153.588C214.956 153.703 217.526 153.96 219.306 154.206C221.307 154.48 222.034 154.643 223.982 154.941C224.553 155.029 224.726 155.019 225.682 155.164C227.208 155.398 228.874 155.672 229.942 155.809C231.406 155.993 230.134 155.809 232.109 156.032C232.189 156.041 232.483 156.1 232.907 156.139C233.957 156.234 234.026 156.224 235.122 156.302C235.325 156.316 235.562 156.332 235.842 156.349C236.008 156.369 238.424 156.507 238.66 156.505C240.071 156.558 242.909 156.542 243.744 156.504C246.73 156.38 244.376 156.431 246.92 156.403C248.037 156.324 249.145 156.235 250.331 156.143C249.54 156.209 252.758 156.048 252.986 156.039C254.859 155.935 253.74 155.94 256.12 155.866C252.979 156.045 259.191 155.77 260.586 155.862C262.776 155.914 264.897 156.065 266.996 156.305C271.288 156.81 275.429 157.637 279.83 158.607C282.02 159.09 284.952 159.774 287.247 160.358C287.79 160.496 287.377 160.411 287.848 160.531C288.314 160.651 287.795 160.496 288.338 160.636C290.781 161.272 292.82 161.846 294.93 162.439C295.705 162.662 296.49 162.884 297.308 163.108C297.454 163.158 297.447 163.163 297.689 163.241C300.18 163.921 304.936 165.372 306.728 165.903C309.53 166.734 310.256 166.914 312.293 167.515C314.986 168.309 319.017 169.547 317.237 168.925C318.543 169.304 319.815 169.674 321.107 170.053L321.005 170.801C320.445 170.808 319.882 170.814 319.31 170.819C319.094 170.822 319.243 170.794 319.156 170.795C318.607 170.799 318.428 170.824 318.058 170.831C317.052 170.848 318.693 170.797 317.259 170.825C316.503 170.84 316.074 170.866 313.974 170.896C301.317 171.078 287.576 171.267 274.601 171.448C273.71 171.46 274.297 171.476 273.18 171.491C269.298 171.541 262.349 171.598 259.002 171.652C255.655 171.705 256.41 171.73 254.316 171.774C253.912 171.783 254.243 171.758 253.877 171.763C251.416 171.796 248.481 171.806 246.487 171.83C245.169 171.845 245.275 171.876 244.36 171.891C242.997 171.914 241.594 171.901 240.867 171.911C237.448 171.955 235.098 172.014 231.905 172.046C232.03 172.052 232.112 172.057 232.218 172.062C228.438 172.115 224.662 172.168 220.882 172.22C221.06 172.224 221.232 172.228 221.411 172.232C216.975 172.292 217.48 172.215 217.872 172.356C217.55 172.366 217.208 172.377 216.9 172.386C217.024 172.309 214.34 172.291 210.925 172.321C210.675 172.323 208.996 172.421 209.177 172.331C208.739 172.358 208.478 172.377 208.108 172.401C207.385 172.385 206.653 172.369 205.93 172.353C205.54 172.362 205.145 172.372 204.755 172.381C204.698 172.399 204.742 172.416 204.617 172.435C202.807 172.463 199.093 172.495 197.662 172.518C194.107 172.574 190.489 172.671 187.724 172.661C186.378 172.685 187.715 172.699 185.713 172.724C185.486 172.71 185.273 172.697 185.037 172.683C183.401 172.782 183.058 172.74 180.815 172.756C179.298 172.767 178.305 172.8 176.86 172.817C176.494 172.821 176.546 172.798 176.295 172.802C175.456 172.817 173.064 172.881 172.472 172.891C167.107 172.975 162.498 173.037 157.388 173.102C156.839 173.109 157.551 173.12 156.983 173.128C156.069 173.139 156.606 173.098 156.076 173.104C154.599 173.12 154.588 173.156 152.527 173.187C145.742 173.29 137.939 173.374 130.85 173.472C130.629 173.476 130.642 173.496 130.401 173.5C128.832 173.523 127.242 173.518 125.817 173.538C123.452 173.572 121.675 173.627 119.34 173.66C114.774 173.725 110.694 173.768 105.999 173.834C102.155 173.888 98.8174 173.938 94.6032 173.998C76.1955 174.259 57.4128 174.593 38.8794 174.821C38.4077 174.827 38.5995 174.806 38.4556 174.809C37.088 174.836 36.9662 174.863 36.4791 174.817C34.7369 174.852 34.1875 174.899 32.0833 174.927C30.9618 174.941 31.7983 174.869 29.9013 174.927C28.1885 174.979 30.0796 174.986 24.9843 175.024C24.8494 175.025 24.185 174.998 23.1257 175.022C22.0615 175.047 23.2939 175.056 20.7318 175.1C14.7169 175.205 7.10248 175.281 0.10972 175.39C-0.0133094 175.392 -0.433983 175.4 -0.994163 175.41L-1.40979 175.417L-1.41041 175C-1.41689 173.564 -1.42895 171.211 -1.4355 170.611C-1.4532 168.999 -1.48065 169.335 -1.48738 167.241C-1.49255 165.623 -1.46145 164.287 -1.46766 162.385C-1.46842 162.163 -1.50041 161.792 -1.49617 160.362ZM303.777 165.526C303.389 165.445 302.672 165.356 300.389 164.654C300.173 164.587 301.368 164.853 300.106 164.472C301.347 164.825 302.555 165.175 303.777 165.526C303.777 165.526 303.777 165.526 303.777 165.526ZM-0.75957 150.01C-0.765365 151.797 -0.771107 153.59 -0.776903 155.377C-0.790874 154.144 -0.804818 152.909 -0.818893 151.681C-0.79913 151.122 -0.779333 150.569 -0.75957 150.01ZM196.44 172.006C196.439 172.006 196.437 172.006 196.435 172.006C198.313 171.964 200.192 171.923 202.071 171.881C201.873 171.895 201.675 171.909 201.478 171.922C199.995 171.961 198.512 171.999 197.034 172.037C196.836 172.027 196.638 172.016 196.44 172.006ZM181.602 172.333C180.403 172.337 180.696 172.311 180.036 172.299C180.036 172.299 180.036 172.299 180.036 172.299C179.862 172.296 179.051 172.303 178.737 172.306C178.853 172.318 179.002 172.33 179.128 172.342C176.33 172.415 170.856 172.374 177.94 172.226C177.834 172.245 177.733 172.263 177.628 172.282C181.148 172.227 185.074 172.209 181.602 172.333ZM276.394 158.424C273.436 157.895 272.494 157.707 268.899 157.134C269.41 157.19 269.923 157.25 270.432 157.314C271.021 157.424 271.608 157.539 272.199 157.658C272.2 157.658 272.202 157.659 272.204 157.659C272.325 157.663 272.449 157.667 272.564 157.67C273.842 157.904 275.121 158.157 276.394 158.424ZM66.5599 173.928C65.7207 173.827 65.9632 173.889 68.3554 173.83C69.1837 173.809 68.376 173.801 68.8914 173.79C71.674 173.732 71.8976 173.805 71.2771 173.854C69.7022 173.879 68.111 173.904 66.565 173.928C66.5634 173.928 66.5616 173.928 66.5599 173.928ZM-0.913065 170.357C-0.913065 170.355 -0.913065 170.354 -0.913065 170.352C-0.885337 170.28 -0.877878 171.402 -0.851606 170.136C-0.85171 171.099 -0.85193 172.062 -0.852033 173.029C-0.854616 172.745 -0.857079 172.455 -0.859662 172.172C-0.869184 172.422 -0.878826 172.673 -0.888347 172.924C-0.856475 173.266 -0.875002 173.584 -0.885662 174.595C-0.851614 174.315 -0.817542 174.037 -0.783494 173.758C-0.787063 174.172 -0.790637 174.586 -0.794212 175L-1.00293 174.794C-0.240239 174.79 0.523045 174.786 1.28447 174.781C1.299 174.79 1.31388 174.798 1.32848 174.807C1.77119 174.789 2.2096 174.772 2.65231 174.755C2.77291 174.763 2.88894 174.772 3.00952 174.78C3.5438 174.765 4.07899 174.75 4.61323 174.734C4.77624 174.757 3.59862 174.784 5.68646 174.748C5.04635 174.783 4.40757 174.817 3.76265 174.852C2.17474 174.873 0.586826 174.895 -1.00119 174.916L-0.916267 175C-0.915209 173.452 -0.914138 171.905 -0.913065 170.357ZM88.3261 173.584C84.8731 173.638 85.8453 173.606 86.644 173.538C87.2028 173.553 87.7672 173.569 88.3261 173.584ZM266.233 171.103C267.234 171.051 268.24 170.998 269.265 170.947C271.307 170.896 273.351 170.937 271.815 170.986C269.966 171.046 268.034 171.036 266.233 171.103ZM312.743 170.425C310.245 170.442 312.595 170.363 313.158 170.329C313.85 170.362 314.813 170.344 316.361 170.327C314.908 170.35 313.156 170.422 312.743 170.425C312.743 170.425 312.743 170.425 312.743 170.425ZM226.025 171.632C225.024 171.647 224.028 171.672 223.133 171.672C223.402 171.631 225.194 171.639 223.912 171.603C224.552 171.593 225.194 171.583 225.829 171.573C225.426 171.601 225.969 171.61 226.023 171.632C226.023 171.632 226.024 171.632 226.025 171.632ZM121.783 173.065C123.748 173.08 124.12 173.056 126.099 172.998C126.379 173.029 124.02 173.122 122.541 173.156C122.29 173.126 122.038 173.095 121.783 173.065ZM58.5808 148.495C59.0517 148.429 62.5255 148.225 64.2526 148.193C64.0473 148.206 63.8413 148.22 63.6359 148.234C61.9539 148.3 60.2657 148.404 58.5808 148.495ZM317.098 170.32C316.839 170.322 316.593 170.324 316.361 170.327C316.619 170.323 316.868 170.32 317.098 170.32ZM222.204 154.963C223.024 155.047 220.607 154.656 223.541 155.131C223.541 155.131 223.541 155.131 223.541 155.131C225.48 155.449 225.908 155.526 227.707 155.795C227.051 155.754 223.395 155.224 228.429 155.985C228.497 155.994 228.365 155.945 229.174 156.059C229.418 156.093 230.217 156.229 231.428 156.373C231.822 156.419 234.772 156.741 230.748 156.306C230.863 156.358 230.643 156.37 230.648 156.408C229.075 156.229 227.884 155.983 226.232 155.731C223.781 155.35 222.524 155.223 222.067 155.055C224.131 155.352 227.669 155.914 228.124 156.027C230.124 156.308 230.708 156.322 229.096 156.089C222.195 155.11 227.215 155.733 221.178 154.849C221.104 154.852 220.853 154.831 220.889 154.849C219.053 154.536 221.912 154.927 222.204 154.963ZM236.655 156.84C236.124 156.825 235.619 156.806 235.088 156.781C234.4 156.748 233.73 156.709 233.045 156.662C233.049 156.617 233.589 156.639 235.092 156.722C235.256 156.731 235.43 156.74 235.614 156.75C235.96 156.782 236.305 156.812 236.655 156.84ZM136.147 150.564C135.973 150.538 135.524 150.427 135.195 150.354C134.891 150.049 126.424 148.334 130.745 149.141C131.384 149.211 135.134 150.284 136.147 150.564ZM108.14 173.298C109.161 173.3 110.178 173.303 111.194 173.306C109.63 173.339 108.065 173.373 106.501 173.406C107.049 173.37 107.592 173.334 108.14 173.298ZM282.854 170.912C282.423 170.917 283.855 170.861 282.156 170.891C283.422 170.85 284.608 170.814 285.846 170.775C286.217 170.787 286.592 170.798 286.963 170.81C287.252 170.795 287.546 170.78 287.835 170.765C287.662 170.792 287.508 170.818 287.325 170.846C285.239 170.823 284.762 170.889 282.854 170.912ZM220.846 171.89C220.47 171.842 223.49 171.767 220.519 171.801C221.082 171.758 221.988 171.727 223.726 171.699C224.005 171.709 224.284 171.718 224.563 171.727C224.601 171.691 225.049 171.671 226.025 171.632C226.026 171.632 226.027 171.632 226.028 171.632C228.671 171.592 228.513 171.606 229.15 171.656C226.351 171.662 226.268 171.717 224.361 171.776C223.052 171.817 221.341 171.831 220.846 171.89ZM145.162 152.569C143.188 152.373 144.928 152.729 141.474 152.044C141.697 152.08 141.927 152.115 142.15 152.145C143.146 152.334 144.152 152.476 145.162 152.569ZM211.078 171.847C211.305 171.926 213.169 171.963 213.485 171.825C211.669 171.823 212.557 171.887 211.078 171.847ZM311.893 170.565C308.401 170.611 309.06 170.509 310.495 170.442C310.717 170.456 310.938 170.47 311.155 170.483C311.767 170.467 312.378 170.451 312.99 170.434C312.624 170.478 312.258 170.522 311.893 170.565ZM149.526 172.812C152.194 172.716 146.646 172.821 148.509 172.758C149.997 172.707 151.959 172.738 151.218 172.786C150.702 172.794 150.129 172.803 149.531 172.812C149.53 172.812 149.528 172.812 149.526 172.812ZM164.966 172.576C164.527 172.52 165.159 172.529 163.051 172.57C162.449 172.582 157.665 172.626 159.674 172.65C161.383 172.625 163.189 172.601 164.966 172.576ZM290.968 161.799C290.933 161.759 294.085 162.561 294.83 162.787C294.883 162.803 294.926 162.816 294.955 162.825C294.955 162.825 294.955 162.825 294.955 162.825C295.393 162.968 295.187 162.919 294.82 162.822C294.194 162.659 293.006 162.346 294.04 162.672C290.472 161.627 289.336 161.476 289.637 161.387C291.762 161.942 290.755 161.71 290.968 161.799ZM12.95 147.688C12.9483 147.688 12.9466 147.688 12.9449 147.688C13.19 147.66 15.2231 147.503 14.9777 147.542C12.5368 147.767 12.9708 147.697 10.7062 147.998C10.58 147.999 10.472 147.998 10.3369 148C11.2376 147.886 11.7315 147.811 12.95 147.688ZM127.023 148.573C127.923 148.618 129.545 148.856 130.552 149.058C127.332 148.515 123.427 148.494 127.023 148.573ZM28.1265 174.495C28.129 174.495 28.1317 174.495 28.1342 174.495C28.1335 174.495 28.1324 174.495 28.1317 174.495C28.13 174.495 28.1282 174.495 28.1265 174.495ZM195.973 154.262C195.857 154.255 195.791 154.248 195.768 154.243C195.768 154.242 195.768 154.242 195.768 154.241C195.831 154.248 195.898 154.255 195.973 154.262ZM283.542 159.924C282.061 159.527 287.039 160.664 288.639 161.108C288.524 161.096 288.504 161.107 288.235 161.058C286.949 160.675 283.789 159.985 283.542 159.924ZM243.36 171.454C247.401 171.398 242.145 171.623 241.926 171.506C241.934 171.504 243.256 171.456 243.36 171.454ZM314.221 168.513C315.222 168.758 313.239 168.166 316.413 169.101C316.594 169.166 316.776 169.231 316.957 169.296C316.045 169.035 315.133 168.774 314.221 168.513ZM269.834 171.275C274.92 171.177 279.783 171.063 276.469 170.985C276.084 170.994 275.694 171.004 275.309 171.013C275.252 171.075 273.831 171.062 271.752 171.09C271.456 171.118 270.303 171.14 270.087 171.164C269.669 171.21 270.994 171.219 269.834 171.275ZM55.1203 174.23C55.2021 174.218 55.2819 174.206 55.3637 174.195C56.1678 174.172 56.9741 174.148 57.7783 174.125C57.6487 174.147 57.5186 174.169 57.389 174.191C56.6333 174.204 55.8812 174.217 55.1255 174.23C55.1238 174.23 55.122 174.23 55.1203 174.23ZM241.61 156.824C241.147 156.934 242.768 156.944 246.035 156.737C244.563 156.793 243.084 156.827 241.61 156.824ZM188.111 172.391C188.004 172.36 187.9 172.329 187.788 172.297C186.05 172.356 186.374 172.389 187.207 172.42C187.51 172.411 187.807 172.401 188.111 172.391ZM163.067 172.761C163.788 172.758 163.42 172.736 163.495 172.736C165.321 172.724 165.578 172.732 167.817 172.68C168.091 172.67 168.361 172.659 168.635 172.647C167.599 172.594 166.848 172.642 164.656 172.633C165.052 172.651 165.445 172.668 165.841 172.686C164.622 172.699 163.409 172.711 162.191 172.724C162.046 172.733 161.902 172.742 161.757 172.751C162.191 172.755 162.638 172.759 163.067 172.761ZM45.8188 174.332C44.634 174.346 43.4438 174.36 42.2589 174.375C42.2158 174.392 42.1744 174.41 42.1313 174.427C43.359 174.396 44.5912 174.364 45.8188 174.332ZM217.445 154.344C217.352 154.34 217.261 154.336 217.18 154.333C217.189 154.326 217.291 154.332 217.445 154.344ZM9.8318 147.949C8.49287 148.098 6.57913 148.357 5.11385 148.562C5.23596 148.582 8.94762 148.069 10.2585 147.948C10.4663 147.915 10.3981 147.885 9.8318 147.949ZM307.063 170.63C306.726 170.656 306.39 170.682 306.058 170.708C305.244 170.717 304.428 170.726 303.609 170.736C303.585 170.753 303.562 170.771 303.538 170.789C307.144 170.715 306.313 170.777 308.1 170.8C307.752 170.744 307.41 170.687 307.063 170.63ZM8.12328 174.978C10.7287 174.929 11.6526 174.894 10.183 174.863C9.26363 174.888 8.33876 174.913 7.41936 174.938C7.65553 174.952 7.89195 174.965 8.12328 174.978ZM170.284 150.81C169.797 150.785 169.429 150.769 169.104 150.755C167.982 150.715 167.588 150.662 165.93 150.745C166.99 150.716 168.049 150.727 169.103 150.778C169.187 150.782 169.271 150.786 169.354 150.79C169.662 150.794 169.975 150.8 170.284 150.81ZM276.651 158.051C275.752 157.845 274.043 157.606 271.504 157.091C270.888 157.014 270.507 156.978 269.975 156.921C269.671 156.848 269.333 156.77 269.044 156.702C269.042 156.702 269.041 156.702 269.039 156.701C266.704 156.396 268.216 156.634 268.157 156.653C268.144 156.659 267.298 156.545 266.973 156.513C266.822 156.497 266.772 156.496 266.94 156.523C266.95 156.524 266.961 156.526 266.971 156.527C267.949 156.66 271.345 157.157 271.35 157.223C270.138 156.994 267.741 156.684 268.444 156.817C269.217 156.954 271.468 157.235 272.886 157.529C270.862 157.079 275.07 157.862 275.532 158.037C278.002 158.49 275.75 157.986 273.215 157.525C274.772 157.76 272.492 157.366 272.121 157.264C273.731 157.489 279.173 158.642 276.651 158.051ZM248.653 171.597C250.387 171.569 253.097 171.56 254.284 171.5C254.975 171.465 252.259 171.484 254.131 171.418C252.442 171.446 252.056 171.467 252.346 171.497C251.961 171.507 251.571 171.516 251.186 171.526C251.008 171.522 250.825 171.518 250.647 171.513C250.445 171.53 250.241 171.547 250.044 171.564C249.635 171.567 249.221 171.571 248.812 171.573C248.764 171.581 248.682 171.589 248.653 171.597ZM108.304 149.757C108.783 149.708 109.258 149.66 109.737 149.611C109.683 149.608 109.619 149.605 109.558 149.603C109.514 149.601 109.47 149.598 109.426 149.596C109.705 149.592 111.992 149.4 112.951 149.282C113.433 149.222 112.328 149.281 114.379 149.077C112.891 149.219 111.517 149.364 110.075 149.514C110.203 149.487 110.326 149.461 110.454 149.434C110.453 149.434 110.452 149.434 110.451 149.434C109.972 149.479 109.487 149.525 109.008 149.571C108.772 149.633 108.54 149.695 108.304 149.757ZM189.523 172.435C191.165 172.385 191.715 172.363 190.939 172.331C190.937 172.331 190.935 172.331 190.933 172.331C190.322 172.359 189.71 172.387 189.099 172.415C189.239 172.422 189.378 172.429 189.523 172.435ZM203.312 153.777C199.829 154.082 207.683 153.682 206.188 153.69C206.118 153.682 203.639 153.777 203.312 153.777ZM312.535 170.607C311.577 170.622 310.616 170.637 309.653 170.652C309.875 170.669 310.102 170.686 310.324 170.704C311.061 170.672 311.799 170.639 312.535 170.607ZM19.4684 174.892C20.4778 174.923 23.0674 174.903 24.3321 174.835C23.6674 174.839 23.0024 174.843 22.3377 174.846C23.5941 174.823 24.8364 174.799 26.1025 174.775C26.169 174.711 24.7104 174.769 22.5139 174.782C22.1738 174.784 19.9988 174.736 19.249 174.806C19.0981 174.821 21.4109 174.796 19.8041 174.855C20.5069 174.847 21.1136 174.838 21.7778 174.83C21.8262 174.845 21.8741 174.859 21.9274 174.873C21.1058 174.88 20.2898 174.886 19.4684 174.892ZM258.75 171.448C261.132 171.418 261.426 171.388 261.921 171.337C260.813 171.357 259.705 171.378 258.598 171.399C258.651 171.415 258.697 171.432 258.75 171.448ZM40.7605 174.604C42.0647 174.592 41.5056 174.564 42.0304 174.549C44.014 174.495 45.3678 174.502 47.3275 174.458C47.1975 174.467 47.0782 174.475 46.953 174.484C46.9548 174.483 46.9564 174.483 46.9582 174.483C56.239 174.382 51.3632 174.369 45.8104 174.461C45.6802 174.45 45.555 174.438 45.4248 174.426C42.9401 174.485 40.6488 174.541 40.7605 174.604ZM234.178 156.446C234.075 156.427 234.972 156.453 233.29 156.332C231.954 156.285 234.137 156.453 234.682 156.519C234.231 156.492 233.76 156.46 233.31 156.426C234.089 156.504 234.676 156.551 235.102 156.581C236.158 156.653 236.152 156.628 235.447 156.542C235.423 156.539 235.286 156.53 235.107 156.518C234.748 156.494 234.253 156.458 234.178 156.446ZM216.369 154.039C215.982 154.104 219.421 154.449 219.302 154.41C218.828 154.346 218.458 154.319 217.957 154.251C217.449 154.183 217.323 154.139 216.369 154.039ZM313.645 168.095C313.548 168.066 312.586 167.735 312.672 167.799C313.854 168.238 316.302 168.892 315.885 168.737C315.08 168.504 314.54 168.361 313.645 168.095C313.645 168.095 313.645 168.095 313.645 168.095ZM3.75654 175.143C3.80468 175.145 6.34011 175.129 6.66705 175.106C6.9364 175.082 7.06987 175.058 7.27182 175.034C5.8754 175.073 3.04811 175.099 3.76167 175.143C3.75994 175.143 3.75827 175.143 3.75654 175.143Z" fill="#EAE1C4"/>
<g filter="url(#filter1_di_3489_2578)">
<rect y="168" width="379" height="19" fill="url(#paint1_linear_3489_2578)"/>
</g>
<rect y="163" width="379" height="5" fill="#B1B1B1"/>
<g filter="url(#filter2_d_3489_2578)">
<path d="M351.4 127.4L351.141 68.599" stroke="#636262" stroke-width="6"/>
<path d="M335.824 35C346.912 35.8907 353.15 35.8862 364.232 35L371.2 69.5309C355.384 71.1053 346.6 71.0821 331 69.5309L335.824 35Z" fill="#D9D9D9"/>
<path d="M340.648 38.2312L336.4 66.2" stroke="#B6B6B6" stroke-width="1.2"/>
<path d="M353.8 39.2L356.2 66.8M347.2 39.2L345.4 66.8M359.944 38.2312C361.409 48.94 362.767 54.944 364.232 65.6528" stroke="#B6B6B6" stroke-width="1.2"/>
</g>
<g filter="url(#filter3_d_3489_2578)">
<path d="M296.092 143.841L293.674 184.54L288.42 184.54L290.505 143.51L296.092 143.841Z" fill="#636262" stroke="#4D4D4D" stroke-width="0.8"/>
<path d="M276.983 142.478L272.716 179.599L267.948 179.6L272.215 141.93L276.983 142.478Z" fill="#636262" stroke="#4D4D4D" stroke-width="0.8"/>
<path d="M305.81 141.903L307.085 178.239L302.828 178.239L301.416 142.074L305.81 141.903Z" fill="#636262" stroke="#4D4D4D" stroke-width="0.8"/>
<path d="M320.823 141.846L325.057 183.205L319.543 183.205L315.255 142.431L320.823 141.846Z" fill="#636262" stroke="#4D4D4D" stroke-width="0.8"/>
<path d="M302.89 98.4209C305.529 98.3659 308.96 98.4216 312.421 98.5645C315.881 98.7073 319.363 98.9369 322.1 99.2305C323.47 99.3773 324.647 99.5394 325.539 99.7129C325.985 99.7997 326.353 99.8883 326.634 99.9766C326.929 100.069 327.087 100.149 327.15 100.199C327.188 100.23 327.286 100.359 327.419 100.676C327.542 100.972 327.675 101.374 327.812 101.873C328.086 102.87 328.373 104.216 328.663 105.799C329.242 108.962 329.828 113.036 330.353 117.066C330.878 121.095 331.34 125.074 331.672 128.047C331.837 129.533 331.97 130.767 332.061 131.63C332.107 132.061 332.142 132.399 332.166 132.63C332.173 132.696 332.178 132.754 332.183 132.802L324.44 141.071L293.678 138.562L292.184 134.827L291.8 132.9V127.778C291.803 127.767 291.805 127.754 291.808 127.738C291.819 127.685 291.834 127.607 291.854 127.505C291.894 127.3 291.954 126.998 292.03 126.614C292.182 125.847 292.401 124.749 292.667 123.428C293.198 120.785 293.919 117.248 294.678 113.675C295.437 110.101 296.233 106.494 296.914 103.706C297.254 102.312 297.565 101.127 297.827 100.257C297.958 99.8211 298.074 99.4703 298.174 99.2139C298.225 99.0855 298.268 98.9864 298.305 98.915C298.33 98.868 298.346 98.8425 298.354 98.8311C298.363 98.8264 298.379 98.818 298.405 98.8076C298.464 98.7843 298.551 98.7592 298.669 98.7324C298.904 98.679 299.229 98.6301 299.638 98.5879C300.455 98.5036 301.57 98.4484 302.89 98.4209Z" fill="#A5C681" stroke="#9CB384" stroke-width="0.8"/>
<path d="M291.571 133.07L291.571 133.106L291.578 133.142L291.961 135.144L291.973 135.208L292.004 135.264L293.965 138.77L261.628 143.449L260.191 140.573L259.822 136.803L259.399 132.25L259.395 132.22L259.389 132.191L259.143 131.191L291.537 127.913L291.571 133.07Z" fill="#A5C681" stroke="#9CB384" stroke-width="0.8"/>
<path d="M302.993 143.298L264.271 137.358L291.402 133.889L323.683 137.865L302.993 143.298Z" fill="#A5C681" stroke="#9CB384" stroke-width="0.8"/>
<path d="M304.184 142.799L304.175 142.829L304.161 142.858L304.162 142.859L304.16 142.861C304.159 142.863 304.158 142.865 304.157 142.867C304.154 142.873 304.15 142.882 304.145 142.894C304.134 142.916 304.118 142.948 304.097 142.99C304.055 143.073 303.995 143.193 303.916 143.341C303.758 143.637 303.528 144.048 303.239 144.509C302.664 145.425 301.837 146.567 300.858 147.393C299.884 148.214 298.475 149.275 297.315 150.126C297.069 150.307 296.832 150.476 296.614 150.634L330.374 145.112L332.673 142.847L335.407 137.378L335.765 132.741L306.109 136.253L304.184 142.799Z" fill="#A5C681" stroke="#9CB384" stroke-width="0.8"/>
<path d="M261.8 137.487L303.062 143.064C303.062 143.064 303.73 143.79 303.05 144.746C302.314 145.78 301.929 146.401 301.03 147.283C299.431 148.852 299.814 149.938 296.204 150.806C292.594 151.674 263.402 145.415 262.607 145.087C261.811 144.758 261.172 143.378 260.624 142.121C259.887 140.428 261.8 137.487 261.8 137.487Z" fill="#A5C681" stroke="#9CB384" stroke-width="0.8"/>
<path d="M267.4 137.366L303.8 142.687L303 143.887L261.8 137.887L267.4 137.366Z" fill="#A5C681"/>
<path d="M290.408 126.687L291.426 127.96L259.549 131.07L258.404 129.926L258.297 129.899L257.341 129.66L287.818 126.687H290.408Z" fill="#A5C681" stroke="#9CB384" stroke-width="0.8"/>
<path d="M336.414 132.97C336.668 133.193 336.924 133.456 337.051 133.682C337.174 133.902 337.266 134.247 337.325 134.57C337.336 134.631 337.343 134.689 337.352 134.744L309.094 138.652C309.038 138.556 308.969 138.437 308.888 138.309C308.687 137.993 308.397 137.583 308.085 137.309C307.813 137.071 307.465 136.886 307.109 136.741L333.975 133.083L333.982 133.082L333.989 133.081L336.098 132.71C336.18 132.773 336.292 132.864 336.414 132.97Z" fill="#A5C681" stroke="#9CB384" stroke-width="0.8"/>
<path d="M258.6 129.887L259.4 131.087L260.2 139.487L260.6 142.287L261.8 144.287C261.8 144.287 259.8 144.287 257.8 141.887C255.8 139.487 255.4 129.887 255.4 129.887H258.6Z" fill="#A5C681" stroke="#9CB384" stroke-width="0.8"/>
<path d="M306.2 136.287L305.4 139.087L303.8 143.087L301.8 146.287L300.2 148.287L298.2 150.287L301.8 149.887L305.4 147.487L309 138.687L307.8 136.687L306.2 136.287Z" fill="#A5C681"/>
<path d="M305.4 147.487C306.806 144.05 307.594 142.123 309 138.687L307.8 136.687L306.2 136.287L305.4 139.087L303.8 143.087L301.8 146.287L300.2 148.287L298.2 150.287L301.8 149.887C301.8 149.887 303.994 148.424 305.4 147.487ZM305.4 147.487C315.866 145.769 332.2 143.087 332.2 143.087L337.4 134.687" stroke="#9CB384" stroke-width="0.8"/>
<path d="M332.2 135.887L337 135.087L335.8 136.687L333.8 139.487L332.2 135.887Z" fill="#A5C681"/>
</g>
<path d="M350 125.978L353.879 125L367.5 180.28L363.686 180.28L350 125.978Z" fill="#636262"/>
<path d="M350.444 128L354.428 128.361L349.267 185.359L345.212 185.359L350.444 128Z" fill="#636262"/>
<path d="M348.171 127L352.091 127.796L341.814 178.439L337.703 178.5L348.171 127Z" fill="#636262"/>
</g>
<defs>
<filter id="filter0_gf_3489_2578" x="-10" y="-22" width="368" height="60.5" filterUnits="importrSpaceOnimport" color-interpolation-filters="sRGB">
<feFlood flood-opacity="0" result="BackgroundImageFix"/>
<feBlend mode="normal" in="SourceGraphic" in2="BackgroundImageFix" result="shape"/>
<feTurbulence type="fractalNoise" baseFrequency="2 2" numOctaves="3" seed="700" />
<feDisplacementMap in="shape" scale="12" xChannelSelector="R" yChannelSelector="G" result="displacedImage" width="100%" height="100%" />
<feMerge result="effect1_texture_3489_2578">
<feMergeNode in="displacedImage"/>
</feMerge>
<feGaussianBlur stdDeviation="5" result="effect2_foregroundBlur_3489_2578"/>
</filter>
<filter id="filter1_di_3489_2578" x="-8" y="158" width="395" height="35" filterUnits="importrSpaceOnimport" color-interpolation-filters="sRGB">
<feFlood flood-opacity="0" result="BackgroundImageFix"/>
<feColorMatrix in="SourceAlpha" type="matrix" values="0 0 0 0 0 0 0 0 0 0 0 0 0 0 0 0 0 0 127 0" result="hardAlpha"/>
<feOffset dy="-2"/>
<feGaussianBlur stdDeviation="4"/>
<feComposite in2="hardAlpha" operator="out"/>
<feColorMatrix type="matrix" values="0 0 0 0 0 0 0 0 0 0 0 0 0 0 0 0 0 0 0.15 0"/>
<feBlend mode="normal" in2="BackgroundImageFix" result="effect1_dropShadow_3489_2578"/>
<feBlend mode="normal" in="SourceGraphic" in2="effect1_dropShadow_3489_2578" result="shape"/>
<feColorMatrix in="SourceAlpha" type="matrix" values="0 0 0 0 0 0 0 0 0 0 0 0 0 0 0 0 0 0 127 0" result="hardAlpha"/>
<feMorphology radius="2" operator="erode" in="SourceAlpha" result="effect2_innerShadow_3489_2578"/>
<feOffset dy="-4"/>
<feGaussianBlur stdDeviation="2"/>
<feComposite in2="hardAlpha" operator="arithmetic" k2="-1" k3="1"/>
<feColorMatrix type="matrix" values="0 0 0 0 0 0 0 0 0 0 0 0 0 0 0 0 0 0 0.15 0"/>
<feBlend mode="normal" in2="shape" result="effect2_innerShadow_3489_2578"/>
</filter>
<filter id="filter2_d_3489_2578" x="325" y="29" width="52.2" height="104.413" filterUnits="importrSpaceOnimport" color-interpolation-filters="sRGB">
<feFlood flood-opacity="0" result="BackgroundImageFix"/>
<feColorMatrix in="SourceAlpha" type="matrix" values="0 0 0 0 0 0 0 0 0 0 0 0 0 0 0 0 0 0 127 0" result="hardAlpha"/>
<feOffset/>
<feGaussianBlur stdDeviation="3"/>
<feComposite in2="hardAlpha" operator="out"/>
<feColorMatrix type="matrix" values="0 0 0 0 0 0 0 0 0 0 0 0 0 0 0 0 0 0 0.15 0"/>
<feBlend mode="normal" in2="BackgroundImageFix" result="effect1_dropShadow_3489_2578"/>
<feBlend mode="normal" in="SourceGraphic" in2="effect1_dropShadow_3489_2578" result="shape"/>
</filter>
<filter id="filter3_d_3489_2578" x="248.983" y="92" width="94.817" height="98.9406" filterUnits="importrSpaceOnimport" color-interpolation-filters="sRGB">
<feFlood flood-opacity="0" result="BackgroundImageFix"/>
<feColorMatrix in="SourceAlpha" type="matrix" values="0 0 0 0 0 0 0 0 0 0 0 0 0 0 0 0 0 0 127 0" result="hardAlpha"/>
<feOffset/>
<feGaussianBlur stdDeviation="3"/>
<feComposite in2="hardAlpha" operator="out"/>
<feColorMatrix type="matrix" values="0 0 0 0 0 0 0 0 0 0 0 0 0 0 0 0 0 0 0.15 0"/>
<feBlend mode="normal" in2="BackgroundImageFix" result="effect1_dropShadow_3489_2578"/>
<feBlend mode="normal" in="SourceGraphic" in2="effect1_dropShadow_3489_2578" result="shape"/>
</filter>
<linearGradient id="paint0_linear_3489_2578" x1="162.5" y1="152.5" x2="156.5" y2="95.5" gradientUnits="importrSpaceOnimport">
<stop stop-color="#B2B7BD"/>
<stop offset="1" stop-color="#606E74"/>
</linearGradient>
<linearGradient id="paint1_linear_3489_2578" x1="0" y1="177.5" x2="379" y2="177.5" gradientUnits="importrSpaceOnimport">
<stop stop-color="#E7E7E5"/>
<stop offset="1" stop-color="#C2C2BC"/>
</linearGradient>
<clipPath id="clip0_3489_2578">
<rect width="379" height="187" fill="white"/>
</clipPath>
</defs>
</svg>
